M48
; DRILL file {KiCad 5.1.12-84ad8e8a86~92~ubuntu20.04.1} date Sat 15 Jan 2022 07:27:01 PM CET
; FORMAT={-:-/ absolute / inch / decimal}
; #@! TF.CreationDate,2022-01-15T19:27:01+01:00
; #@! TF.GenerationSoftware,Kicad,Pcbnew,5.1.12-84ad8e8a86~92~ubuntu20.04.1
; #@! TF.FileFunction,Plated,1,2,PTH
FMAT,2
INCH
T1C0.0157
T2C0.0394
T3C0.0433
T4C0.1063
%
G90
G05
T1
X1.625Y-4.125
X1.675Y-4.125
X2.011Y-3.111
X2.05Y-4.025
X2.089Y-3.111
X2.15Y-4.075
X2.25Y-3.275
X2.25Y-3.325
X2.25Y-4.075
X2.3Y-2.9
X2.3Y-3.2
X2.4Y-3.225
X2.525Y-3.625
X2.55Y-3.275
X2.575Y-3.625
X2.6Y-3.275
X2.6Y-3.325
X2.675Y-3.25
X2.8Y-3.5
X3.0Y-3.975
X3.125Y-4.15
X3.825Y-3.4
X3.875Y-3.4
X4.075Y-3.4
X4.125Y-3.075
X4.125Y-3.4
X4.275Y-3.075
X4.275Y-3.225
X4.5Y-3.175
X4.55Y-3.175
X4.6Y-3.925
X4.65Y-3.225
T2
X1.55Y-2.9
X1.65Y-2.9
X1.75Y-2.9
X1.85Y-2.9
X1.95Y-2.9
X2.3Y-3.05
X2.4Y-3.05
X2.5Y-3.05
X2.6Y-3.05
X2.65Y-4.05
X2.75Y-4.05
X4.95Y-3.8
X4.95Y-3.9
T3
X3.2Y-3.2
X3.2Y-3.3772
X3.2Y-3.8
X3.2Y-3.9772
X3.4559Y-3.2
X3.4559Y-3.3772
X3.4559Y-3.8
X3.4559Y-3.9772
X3.75Y-3.5
X3.75Y-3.6772
X4.0059Y-3.5
X4.0059Y-3.6772
X4.3Y-3.5
X4.3Y-3.6772
X4.5559Y-3.5
X4.5559Y-3.6772
T4
X1.2Y-2.95
X1.2Y-4.1
X5.25Y-2.95
X5.25Y-4.1
T0
M30
