%TF.GenerationSoftware,KiCad,Pcbnew,5.1.12-84ad8e8a86~92~ubuntu20.04.1*%
%TF.CreationDate,2021-11-19T19:38:05+01:00*%
%TF.ProjectId,autotrigger_dslr,6175746f-7472-4696-9767-65725f64736c,rev?*%
%TF.SameCoordinates,Original*%
%TF.FileFunction,Legend,Bot*%
%TF.FilePolarity,Positive*%
%FSLAX46Y46*%
G04 Gerber Fmt 4.6, Leading zero omitted, Abs format (unit mm)*
G04 Created by KiCad (PCBNEW 5.1.12-84ad8e8a86~92~ubuntu20.04.1) date 2021-11-19 19:38:05*
%MOMM*%
%LPD*%
G01*
G04 APERTURE LIST*
%ADD10C,0.150000*%
%ADD11C,0.100000*%
G04 APERTURE END LIST*
D10*
X50235714Y-75700000D02*
X50330952Y-75652380D01*
X50473809Y-75652380D01*
X50616666Y-75700000D01*
X50711904Y-75795238D01*
X50759523Y-75890476D01*
X50807142Y-76080952D01*
X50807142Y-76223809D01*
X50759523Y-76414285D01*
X50711904Y-76509523D01*
X50616666Y-76604761D01*
X50473809Y-76652380D01*
X50378571Y-76652380D01*
X50235714Y-76604761D01*
X50188095Y-76557142D01*
X50188095Y-76223809D01*
X50378571Y-76223809D01*
X49759523Y-76652380D02*
X49759523Y-75652380D01*
X49188095Y-76652380D01*
X49188095Y-75652380D01*
X48711904Y-76652380D02*
X48711904Y-75652380D01*
X48473809Y-75652380D01*
X48330952Y-75700000D01*
X48235714Y-75795238D01*
X48188095Y-75890476D01*
X48140476Y-76080952D01*
X48140476Y-76223809D01*
X48188095Y-76414285D01*
X48235714Y-76509523D01*
X48330952Y-76604761D01*
X48473809Y-76652380D01*
X48711904Y-76652380D01*
X46473809Y-75652380D02*
X46950000Y-75652380D01*
X46997619Y-76128571D01*
X46950000Y-76080952D01*
X46854761Y-76033333D01*
X46616666Y-76033333D01*
X46521428Y-76080952D01*
X46473809Y-76128571D01*
X46426190Y-76223809D01*
X46426190Y-76461904D01*
X46473809Y-76557142D01*
X46521428Y-76604761D01*
X46616666Y-76652380D01*
X46854761Y-76652380D01*
X46950000Y-76604761D01*
X46997619Y-76557142D01*
X45330952Y-75652380D02*
X44711904Y-75652380D01*
X45045238Y-76033333D01*
X44902380Y-76033333D01*
X44807142Y-76080952D01*
X44759523Y-76128571D01*
X44711904Y-76223809D01*
X44711904Y-76461904D01*
X44759523Y-76557142D01*
X44807142Y-76604761D01*
X44902380Y-76652380D01*
X45188095Y-76652380D01*
X45283333Y-76604761D01*
X45330952Y-76557142D01*
X44283333Y-76557142D02*
X44235714Y-76604761D01*
X44283333Y-76652380D01*
X44330952Y-76604761D01*
X44283333Y-76557142D01*
X44283333Y-76652380D01*
X43902380Y-75652380D02*
X43283333Y-75652380D01*
X43616666Y-76033333D01*
X43473809Y-76033333D01*
X43378571Y-76080952D01*
X43330952Y-76128571D01*
X43283333Y-76223809D01*
X43283333Y-76461904D01*
X43330952Y-76557142D01*
X43378571Y-76604761D01*
X43473809Y-76652380D01*
X43759523Y-76652380D01*
X43854761Y-76604761D01*
X43902380Y-76557142D01*
X41521428Y-76652380D02*
X41854761Y-76176190D01*
X42092857Y-76652380D02*
X42092857Y-75652380D01*
X41711904Y-75652380D01*
X41616666Y-75700000D01*
X41569047Y-75747619D01*
X41521428Y-75842857D01*
X41521428Y-75985714D01*
X41569047Y-76080952D01*
X41616666Y-76128571D01*
X41711904Y-76176190D01*
X42092857Y-76176190D01*
X41188095Y-75652380D02*
X40521428Y-76652380D01*
X40521428Y-75652380D02*
X41188095Y-76652380D01*
X39521428Y-75652380D02*
X38950000Y-75652380D01*
X39235714Y-76652380D02*
X39235714Y-75652380D01*
X38711904Y-75652380D02*
X38045238Y-76652380D01*
X38045238Y-75652380D02*
X38711904Y-76652380D01*
D11*
%TO.C,QR\u002A\u002A\u002A\u002A\u002A*%
G36*
X46935000Y-100075000D02*
G01*
X46935000Y-100575000D01*
X46435000Y-100575000D01*
X46435000Y-100075000D01*
X46935000Y-100075000D01*
G37*
G36*
X47935000Y-100075000D02*
G01*
X47935000Y-100575000D01*
X47435000Y-100575000D01*
X47435000Y-100075000D01*
X47935000Y-100075000D01*
G37*
G36*
X48435000Y-100075000D02*
G01*
X48435000Y-100575000D01*
X47935000Y-100575000D01*
X47935000Y-100075000D01*
X48435000Y-100075000D01*
G37*
G36*
X50435000Y-100075000D02*
G01*
X50435000Y-100575000D01*
X49935000Y-100575000D01*
X49935000Y-100075000D01*
X50435000Y-100075000D01*
G37*
G36*
X51435000Y-100075000D02*
G01*
X51435000Y-100575000D01*
X50935000Y-100575000D01*
X50935000Y-100075000D01*
X51435000Y-100075000D01*
G37*
G36*
X51935000Y-100075000D02*
G01*
X51935000Y-100575000D01*
X51435000Y-100575000D01*
X51435000Y-100075000D01*
X51935000Y-100075000D01*
G37*
G36*
X52935000Y-100075000D02*
G01*
X52935000Y-100575000D01*
X52435000Y-100575000D01*
X52435000Y-100075000D01*
X52935000Y-100075000D01*
G37*
G36*
X53435000Y-100075000D02*
G01*
X53435000Y-100575000D01*
X52935000Y-100575000D01*
X52935000Y-100075000D01*
X53435000Y-100075000D01*
G37*
G36*
X53935000Y-100075000D02*
G01*
X53935000Y-100575000D01*
X53435000Y-100575000D01*
X53435000Y-100075000D01*
X53935000Y-100075000D01*
G37*
G36*
X54435000Y-100075000D02*
G01*
X54435000Y-100575000D01*
X53935000Y-100575000D01*
X53935000Y-100075000D01*
X54435000Y-100075000D01*
G37*
G36*
X55435000Y-100075000D02*
G01*
X55435000Y-100575000D01*
X54935000Y-100575000D01*
X54935000Y-100075000D01*
X55435000Y-100075000D01*
G37*
G36*
X55935000Y-100075000D02*
G01*
X55935000Y-100575000D01*
X55435000Y-100575000D01*
X55435000Y-100075000D01*
X55935000Y-100075000D01*
G37*
G36*
X43935000Y-99575000D02*
G01*
X43935000Y-100075000D01*
X43435000Y-100075000D01*
X43435000Y-99575000D01*
X43935000Y-99575000D01*
G37*
G36*
X44435000Y-99575000D02*
G01*
X44435000Y-100075000D01*
X43935000Y-100075000D01*
X43935000Y-99575000D01*
X44435000Y-99575000D01*
G37*
G36*
X44935000Y-99575000D02*
G01*
X44935000Y-100075000D01*
X44435000Y-100075000D01*
X44435000Y-99575000D01*
X44935000Y-99575000D01*
G37*
G36*
X45435000Y-99575000D02*
G01*
X45435000Y-100075000D01*
X44935000Y-100075000D01*
X44935000Y-99575000D01*
X45435000Y-99575000D01*
G37*
G36*
X45935000Y-99575000D02*
G01*
X45935000Y-100075000D01*
X45435000Y-100075000D01*
X45435000Y-99575000D01*
X45935000Y-99575000D01*
G37*
G36*
X46935000Y-99575000D02*
G01*
X46935000Y-100075000D01*
X46435000Y-100075000D01*
X46435000Y-99575000D01*
X46935000Y-99575000D01*
G37*
G36*
X47435000Y-99575000D02*
G01*
X47435000Y-100075000D01*
X46935000Y-100075000D01*
X46935000Y-99575000D01*
X47435000Y-99575000D01*
G37*
G36*
X50935000Y-99575000D02*
G01*
X50935000Y-100075000D01*
X50435000Y-100075000D01*
X50435000Y-99575000D01*
X50935000Y-99575000D01*
G37*
G36*
X51435000Y-99575000D02*
G01*
X51435000Y-100075000D01*
X50935000Y-100075000D01*
X50935000Y-99575000D01*
X51435000Y-99575000D01*
G37*
G36*
X51935000Y-99575000D02*
G01*
X51935000Y-100075000D01*
X51435000Y-100075000D01*
X51435000Y-99575000D01*
X51935000Y-99575000D01*
G37*
G36*
X53435000Y-99575000D02*
G01*
X53435000Y-100075000D01*
X52935000Y-100075000D01*
X52935000Y-99575000D01*
X53435000Y-99575000D01*
G37*
G36*
X53935000Y-99575000D02*
G01*
X53935000Y-100075000D01*
X53435000Y-100075000D01*
X53435000Y-99575000D01*
X53935000Y-99575000D01*
G37*
G36*
X54435000Y-99575000D02*
G01*
X54435000Y-100075000D01*
X53935000Y-100075000D01*
X53935000Y-99575000D01*
X54435000Y-99575000D01*
G37*
G36*
X54935000Y-99575000D02*
G01*
X54935000Y-100075000D01*
X54435000Y-100075000D01*
X54435000Y-99575000D01*
X54935000Y-99575000D01*
G37*
G36*
X55435000Y-99575000D02*
G01*
X55435000Y-100075000D01*
X54935000Y-100075000D01*
X54935000Y-99575000D01*
X55435000Y-99575000D01*
G37*
G36*
X55935000Y-99575000D02*
G01*
X55935000Y-100075000D01*
X55435000Y-100075000D01*
X55435000Y-99575000D01*
X55935000Y-99575000D01*
G37*
G36*
X56935000Y-99575000D02*
G01*
X56935000Y-100075000D01*
X56435000Y-100075000D01*
X56435000Y-99575000D01*
X56935000Y-99575000D01*
G37*
G36*
X57435000Y-99575000D02*
G01*
X57435000Y-100075000D01*
X56935000Y-100075000D01*
X56935000Y-99575000D01*
X57435000Y-99575000D01*
G37*
G36*
X57935000Y-99575000D02*
G01*
X57935000Y-100075000D01*
X57435000Y-100075000D01*
X57435000Y-99575000D01*
X57935000Y-99575000D01*
G37*
G36*
X58435000Y-99575000D02*
G01*
X58435000Y-100075000D01*
X57935000Y-100075000D01*
X57935000Y-99575000D01*
X58435000Y-99575000D01*
G37*
G36*
X58935000Y-99575000D02*
G01*
X58935000Y-100075000D01*
X58435000Y-100075000D01*
X58435000Y-99575000D01*
X58935000Y-99575000D01*
G37*
G36*
X43935000Y-99075000D02*
G01*
X43935000Y-99575000D01*
X43435000Y-99575000D01*
X43435000Y-99075000D01*
X43935000Y-99075000D01*
G37*
G36*
X45935000Y-99075000D02*
G01*
X45935000Y-99575000D01*
X45435000Y-99575000D01*
X45435000Y-99075000D01*
X45935000Y-99075000D01*
G37*
G36*
X46935000Y-99075000D02*
G01*
X46935000Y-99575000D01*
X46435000Y-99575000D01*
X46435000Y-99075000D01*
X46935000Y-99075000D01*
G37*
G36*
X47435000Y-99075000D02*
G01*
X47435000Y-99575000D01*
X46935000Y-99575000D01*
X46935000Y-99075000D01*
X47435000Y-99075000D01*
G37*
G36*
X47935000Y-99075000D02*
G01*
X47935000Y-99575000D01*
X47435000Y-99575000D01*
X47435000Y-99075000D01*
X47935000Y-99075000D01*
G37*
G36*
X48935000Y-99075000D02*
G01*
X48935000Y-99575000D01*
X48435000Y-99575000D01*
X48435000Y-99075000D01*
X48935000Y-99075000D01*
G37*
G36*
X49935000Y-99075000D02*
G01*
X49935000Y-99575000D01*
X49435000Y-99575000D01*
X49435000Y-99075000D01*
X49935000Y-99075000D01*
G37*
G36*
X53435000Y-99075000D02*
G01*
X53435000Y-99575000D01*
X52935000Y-99575000D01*
X52935000Y-99075000D01*
X53435000Y-99075000D01*
G37*
G36*
X54435000Y-99075000D02*
G01*
X54435000Y-99575000D01*
X53935000Y-99575000D01*
X53935000Y-99075000D01*
X54435000Y-99075000D01*
G37*
G36*
X55435000Y-99075000D02*
G01*
X55435000Y-99575000D01*
X54935000Y-99575000D01*
X54935000Y-99075000D01*
X55435000Y-99075000D01*
G37*
G36*
X55935000Y-99075000D02*
G01*
X55935000Y-99575000D01*
X55435000Y-99575000D01*
X55435000Y-99075000D01*
X55935000Y-99075000D01*
G37*
G36*
X56935000Y-99075000D02*
G01*
X56935000Y-99575000D01*
X56435000Y-99575000D01*
X56435000Y-99075000D01*
X56935000Y-99075000D01*
G37*
G36*
X58935000Y-99075000D02*
G01*
X58935000Y-99575000D01*
X58435000Y-99575000D01*
X58435000Y-99075000D01*
X58935000Y-99075000D01*
G37*
G36*
X43935000Y-98575000D02*
G01*
X43935000Y-99075000D01*
X43435000Y-99075000D01*
X43435000Y-98575000D01*
X43935000Y-98575000D01*
G37*
G36*
X45935000Y-98575000D02*
G01*
X45935000Y-99075000D01*
X45435000Y-99075000D01*
X45435000Y-98575000D01*
X45935000Y-98575000D01*
G37*
G36*
X46935000Y-98575000D02*
G01*
X46935000Y-99075000D01*
X46435000Y-99075000D01*
X46435000Y-98575000D01*
X46935000Y-98575000D01*
G37*
G36*
X48435000Y-98575000D02*
G01*
X48435000Y-99075000D01*
X47935000Y-99075000D01*
X47935000Y-98575000D01*
X48435000Y-98575000D01*
G37*
G36*
X49935000Y-98575000D02*
G01*
X49935000Y-99075000D01*
X49435000Y-99075000D01*
X49435000Y-98575000D01*
X49935000Y-98575000D01*
G37*
G36*
X50435000Y-98575000D02*
G01*
X50435000Y-99075000D01*
X49935000Y-99075000D01*
X49935000Y-98575000D01*
X50435000Y-98575000D01*
G37*
G36*
X50935000Y-98575000D02*
G01*
X50935000Y-99075000D01*
X50435000Y-99075000D01*
X50435000Y-98575000D01*
X50935000Y-98575000D01*
G37*
G36*
X52435000Y-98575000D02*
G01*
X52435000Y-99075000D01*
X51935000Y-99075000D01*
X51935000Y-98575000D01*
X52435000Y-98575000D01*
G37*
G36*
X52935000Y-98575000D02*
G01*
X52935000Y-99075000D01*
X52435000Y-99075000D01*
X52435000Y-98575000D01*
X52935000Y-98575000D01*
G37*
G36*
X53435000Y-98575000D02*
G01*
X53435000Y-99075000D01*
X52935000Y-99075000D01*
X52935000Y-98575000D01*
X53435000Y-98575000D01*
G37*
G36*
X54935000Y-98575000D02*
G01*
X54935000Y-99075000D01*
X54435000Y-99075000D01*
X54435000Y-98575000D01*
X54935000Y-98575000D01*
G37*
G36*
X55435000Y-98575000D02*
G01*
X55435000Y-99075000D01*
X54935000Y-99075000D01*
X54935000Y-98575000D01*
X55435000Y-98575000D01*
G37*
G36*
X55935000Y-98575000D02*
G01*
X55935000Y-99075000D01*
X55435000Y-99075000D01*
X55435000Y-98575000D01*
X55935000Y-98575000D01*
G37*
G36*
X56935000Y-98575000D02*
G01*
X56935000Y-99075000D01*
X56435000Y-99075000D01*
X56435000Y-98575000D01*
X56935000Y-98575000D01*
G37*
G36*
X58935000Y-98575000D02*
G01*
X58935000Y-99075000D01*
X58435000Y-99075000D01*
X58435000Y-98575000D01*
X58935000Y-98575000D01*
G37*
G36*
X43935000Y-98075000D02*
G01*
X43935000Y-98575000D01*
X43435000Y-98575000D01*
X43435000Y-98075000D01*
X43935000Y-98075000D01*
G37*
G36*
X45935000Y-98075000D02*
G01*
X45935000Y-98575000D01*
X45435000Y-98575000D01*
X45435000Y-98075000D01*
X45935000Y-98075000D01*
G37*
G36*
X46935000Y-98075000D02*
G01*
X46935000Y-98575000D01*
X46435000Y-98575000D01*
X46435000Y-98075000D01*
X46935000Y-98075000D01*
G37*
G36*
X48435000Y-98075000D02*
G01*
X48435000Y-98575000D01*
X47935000Y-98575000D01*
X47935000Y-98075000D01*
X48435000Y-98075000D01*
G37*
G36*
X48935000Y-98075000D02*
G01*
X48935000Y-98575000D01*
X48435000Y-98575000D01*
X48435000Y-98075000D01*
X48935000Y-98075000D01*
G37*
G36*
X49435000Y-98075000D02*
G01*
X49435000Y-98575000D01*
X48935000Y-98575000D01*
X48935000Y-98075000D01*
X49435000Y-98075000D01*
G37*
G36*
X49935000Y-98075000D02*
G01*
X49935000Y-98575000D01*
X49435000Y-98575000D01*
X49435000Y-98075000D01*
X49935000Y-98075000D01*
G37*
G36*
X50435000Y-98075000D02*
G01*
X50435000Y-98575000D01*
X49935000Y-98575000D01*
X49935000Y-98075000D01*
X50435000Y-98075000D01*
G37*
G36*
X50935000Y-98075000D02*
G01*
X50935000Y-98575000D01*
X50435000Y-98575000D01*
X50435000Y-98075000D01*
X50935000Y-98075000D01*
G37*
G36*
X52435000Y-98075000D02*
G01*
X52435000Y-98575000D01*
X51935000Y-98575000D01*
X51935000Y-98075000D01*
X52435000Y-98075000D01*
G37*
G36*
X53435000Y-98075000D02*
G01*
X53435000Y-98575000D01*
X52935000Y-98575000D01*
X52935000Y-98075000D01*
X53435000Y-98075000D01*
G37*
G36*
X54935000Y-98075000D02*
G01*
X54935000Y-98575000D01*
X54435000Y-98575000D01*
X54435000Y-98075000D01*
X54935000Y-98075000D01*
G37*
G36*
X55435000Y-98075000D02*
G01*
X55435000Y-98575000D01*
X54935000Y-98575000D01*
X54935000Y-98075000D01*
X55435000Y-98075000D01*
G37*
G36*
X55935000Y-98075000D02*
G01*
X55935000Y-98575000D01*
X55435000Y-98575000D01*
X55435000Y-98075000D01*
X55935000Y-98075000D01*
G37*
G36*
X56935000Y-98075000D02*
G01*
X56935000Y-98575000D01*
X56435000Y-98575000D01*
X56435000Y-98075000D01*
X56935000Y-98075000D01*
G37*
G36*
X58935000Y-98075000D02*
G01*
X58935000Y-98575000D01*
X58435000Y-98575000D01*
X58435000Y-98075000D01*
X58935000Y-98075000D01*
G37*
G36*
X43935000Y-97575000D02*
G01*
X43935000Y-98075000D01*
X43435000Y-98075000D01*
X43435000Y-97575000D01*
X43935000Y-97575000D01*
G37*
G36*
X44435000Y-97575000D02*
G01*
X44435000Y-98075000D01*
X43935000Y-98075000D01*
X43935000Y-97575000D01*
X44435000Y-97575000D01*
G37*
G36*
X44935000Y-97575000D02*
G01*
X44935000Y-98075000D01*
X44435000Y-98075000D01*
X44435000Y-97575000D01*
X44935000Y-97575000D01*
G37*
G36*
X45435000Y-97575000D02*
G01*
X45435000Y-98075000D01*
X44935000Y-98075000D01*
X44935000Y-97575000D01*
X45435000Y-97575000D01*
G37*
G36*
X45935000Y-97575000D02*
G01*
X45935000Y-98075000D01*
X45435000Y-98075000D01*
X45435000Y-97575000D01*
X45935000Y-97575000D01*
G37*
G36*
X46935000Y-97575000D02*
G01*
X46935000Y-98075000D01*
X46435000Y-98075000D01*
X46435000Y-97575000D01*
X46935000Y-97575000D01*
G37*
G36*
X48935000Y-97575000D02*
G01*
X48935000Y-98075000D01*
X48435000Y-98075000D01*
X48435000Y-97575000D01*
X48935000Y-97575000D01*
G37*
G36*
X49935000Y-97575000D02*
G01*
X49935000Y-98075000D01*
X49435000Y-98075000D01*
X49435000Y-97575000D01*
X49935000Y-97575000D01*
G37*
G36*
X50435000Y-97575000D02*
G01*
X50435000Y-98075000D01*
X49935000Y-98075000D01*
X49935000Y-97575000D01*
X50435000Y-97575000D01*
G37*
G36*
X51435000Y-97575000D02*
G01*
X51435000Y-98075000D01*
X50935000Y-98075000D01*
X50935000Y-97575000D01*
X51435000Y-97575000D01*
G37*
G36*
X52435000Y-97575000D02*
G01*
X52435000Y-98075000D01*
X51935000Y-98075000D01*
X51935000Y-97575000D01*
X52435000Y-97575000D01*
G37*
G36*
X52935000Y-97575000D02*
G01*
X52935000Y-98075000D01*
X52435000Y-98075000D01*
X52435000Y-97575000D01*
X52935000Y-97575000D01*
G37*
G36*
X55935000Y-97575000D02*
G01*
X55935000Y-98075000D01*
X55435000Y-98075000D01*
X55435000Y-97575000D01*
X55935000Y-97575000D01*
G37*
G36*
X56935000Y-97575000D02*
G01*
X56935000Y-98075000D01*
X56435000Y-98075000D01*
X56435000Y-97575000D01*
X56935000Y-97575000D01*
G37*
G36*
X57435000Y-97575000D02*
G01*
X57435000Y-98075000D01*
X56935000Y-98075000D01*
X56935000Y-97575000D01*
X57435000Y-97575000D01*
G37*
G36*
X57935000Y-97575000D02*
G01*
X57935000Y-98075000D01*
X57435000Y-98075000D01*
X57435000Y-97575000D01*
X57935000Y-97575000D01*
G37*
G36*
X58435000Y-97575000D02*
G01*
X58435000Y-98075000D01*
X57935000Y-98075000D01*
X57935000Y-97575000D01*
X58435000Y-97575000D01*
G37*
G36*
X58935000Y-97575000D02*
G01*
X58935000Y-98075000D01*
X58435000Y-98075000D01*
X58435000Y-97575000D01*
X58935000Y-97575000D01*
G37*
G36*
X46935000Y-97075000D02*
G01*
X46935000Y-97575000D01*
X46435000Y-97575000D01*
X46435000Y-97075000D01*
X46935000Y-97075000D01*
G37*
G36*
X47935000Y-97075000D02*
G01*
X47935000Y-97575000D01*
X47435000Y-97575000D01*
X47435000Y-97075000D01*
X47935000Y-97075000D01*
G37*
G36*
X48935000Y-97075000D02*
G01*
X48935000Y-97575000D01*
X48435000Y-97575000D01*
X48435000Y-97075000D01*
X48935000Y-97075000D01*
G37*
G36*
X49935000Y-97075000D02*
G01*
X49935000Y-97575000D01*
X49435000Y-97575000D01*
X49435000Y-97075000D01*
X49935000Y-97075000D01*
G37*
G36*
X50935000Y-97075000D02*
G01*
X50935000Y-97575000D01*
X50435000Y-97575000D01*
X50435000Y-97075000D01*
X50935000Y-97075000D01*
G37*
G36*
X51935000Y-97075000D02*
G01*
X51935000Y-97575000D01*
X51435000Y-97575000D01*
X51435000Y-97075000D01*
X51935000Y-97075000D01*
G37*
G36*
X52935000Y-97075000D02*
G01*
X52935000Y-97575000D01*
X52435000Y-97575000D01*
X52435000Y-97075000D01*
X52935000Y-97075000D01*
G37*
G36*
X53935000Y-97075000D02*
G01*
X53935000Y-97575000D01*
X53435000Y-97575000D01*
X53435000Y-97075000D01*
X53935000Y-97075000D01*
G37*
G36*
X54935000Y-97075000D02*
G01*
X54935000Y-97575000D01*
X54435000Y-97575000D01*
X54435000Y-97075000D01*
X54935000Y-97075000D01*
G37*
G36*
X55935000Y-97075000D02*
G01*
X55935000Y-97575000D01*
X55435000Y-97575000D01*
X55435000Y-97075000D01*
X55935000Y-97075000D01*
G37*
G36*
X43435000Y-96575000D02*
G01*
X43435000Y-97075000D01*
X42935000Y-97075000D01*
X42935000Y-96575000D01*
X43435000Y-96575000D01*
G37*
G36*
X43935000Y-96575000D02*
G01*
X43935000Y-97075000D01*
X43435000Y-97075000D01*
X43435000Y-96575000D01*
X43935000Y-96575000D01*
G37*
G36*
X44435000Y-96575000D02*
G01*
X44435000Y-97075000D01*
X43935000Y-97075000D01*
X43935000Y-96575000D01*
X44435000Y-96575000D01*
G37*
G36*
X44935000Y-96575000D02*
G01*
X44935000Y-97075000D01*
X44435000Y-97075000D01*
X44435000Y-96575000D01*
X44935000Y-96575000D01*
G37*
G36*
X45435000Y-96575000D02*
G01*
X45435000Y-97075000D01*
X44935000Y-97075000D01*
X44935000Y-96575000D01*
X45435000Y-96575000D01*
G37*
G36*
X45935000Y-96575000D02*
G01*
X45935000Y-97075000D01*
X45435000Y-97075000D01*
X45435000Y-96575000D01*
X45935000Y-96575000D01*
G37*
G36*
X46435000Y-96575000D02*
G01*
X46435000Y-97075000D01*
X45935000Y-97075000D01*
X45935000Y-96575000D01*
X46435000Y-96575000D01*
G37*
G36*
X46935000Y-96575000D02*
G01*
X46935000Y-97075000D01*
X46435000Y-97075000D01*
X46435000Y-96575000D01*
X46935000Y-96575000D01*
G37*
G36*
X47935000Y-96575000D02*
G01*
X47935000Y-97075000D01*
X47435000Y-97075000D01*
X47435000Y-96575000D01*
X47935000Y-96575000D01*
G37*
G36*
X48435000Y-96575000D02*
G01*
X48435000Y-97075000D01*
X47935000Y-97075000D01*
X47935000Y-96575000D01*
X48435000Y-96575000D01*
G37*
G36*
X49435000Y-96575000D02*
G01*
X49435000Y-97075000D01*
X48935000Y-97075000D01*
X48935000Y-96575000D01*
X49435000Y-96575000D01*
G37*
G36*
X49935000Y-96575000D02*
G01*
X49935000Y-97075000D01*
X49435000Y-97075000D01*
X49435000Y-96575000D01*
X49935000Y-96575000D01*
G37*
G36*
X50935000Y-96575000D02*
G01*
X50935000Y-97075000D01*
X50435000Y-97075000D01*
X50435000Y-96575000D01*
X50935000Y-96575000D01*
G37*
G36*
X51435000Y-96575000D02*
G01*
X51435000Y-97075000D01*
X50935000Y-97075000D01*
X50935000Y-96575000D01*
X51435000Y-96575000D01*
G37*
G36*
X54435000Y-96575000D02*
G01*
X54435000Y-97075000D01*
X53935000Y-97075000D01*
X53935000Y-96575000D01*
X54435000Y-96575000D01*
G37*
G36*
X54935000Y-96575000D02*
G01*
X54935000Y-97075000D01*
X54435000Y-97075000D01*
X54435000Y-96575000D01*
X54935000Y-96575000D01*
G37*
G36*
X55935000Y-96575000D02*
G01*
X55935000Y-97075000D01*
X55435000Y-97075000D01*
X55435000Y-96575000D01*
X55935000Y-96575000D01*
G37*
G36*
X56435000Y-96575000D02*
G01*
X56435000Y-97075000D01*
X55935000Y-97075000D01*
X55935000Y-96575000D01*
X56435000Y-96575000D01*
G37*
G36*
X56935000Y-96575000D02*
G01*
X56935000Y-97075000D01*
X56435000Y-97075000D01*
X56435000Y-96575000D01*
X56935000Y-96575000D01*
G37*
G36*
X57435000Y-96575000D02*
G01*
X57435000Y-97075000D01*
X56935000Y-97075000D01*
X56935000Y-96575000D01*
X57435000Y-96575000D01*
G37*
G36*
X57935000Y-96575000D02*
G01*
X57935000Y-97075000D01*
X57435000Y-97075000D01*
X57435000Y-96575000D01*
X57935000Y-96575000D01*
G37*
G36*
X58435000Y-96575000D02*
G01*
X58435000Y-97075000D01*
X57935000Y-97075000D01*
X57935000Y-96575000D01*
X58435000Y-96575000D01*
G37*
G36*
X58935000Y-96575000D02*
G01*
X58935000Y-97075000D01*
X58435000Y-97075000D01*
X58435000Y-96575000D01*
X58935000Y-96575000D01*
G37*
G36*
X59435000Y-96575000D02*
G01*
X59435000Y-97075000D01*
X58935000Y-97075000D01*
X58935000Y-96575000D01*
X59435000Y-96575000D01*
G37*
G36*
X43935000Y-96075000D02*
G01*
X43935000Y-96575000D01*
X43435000Y-96575000D01*
X43435000Y-96075000D01*
X43935000Y-96075000D01*
G37*
G36*
X44435000Y-96075000D02*
G01*
X44435000Y-96575000D01*
X43935000Y-96575000D01*
X43935000Y-96075000D01*
X44435000Y-96075000D01*
G37*
G36*
X44935000Y-96075000D02*
G01*
X44935000Y-96575000D01*
X44435000Y-96575000D01*
X44435000Y-96075000D01*
X44935000Y-96075000D01*
G37*
G36*
X45935000Y-96075000D02*
G01*
X45935000Y-96575000D01*
X45435000Y-96575000D01*
X45435000Y-96075000D01*
X45935000Y-96075000D01*
G37*
G36*
X47935000Y-96075000D02*
G01*
X47935000Y-96575000D01*
X47435000Y-96575000D01*
X47435000Y-96075000D01*
X47935000Y-96075000D01*
G37*
G36*
X48935000Y-96075000D02*
G01*
X48935000Y-96575000D01*
X48435000Y-96575000D01*
X48435000Y-96075000D01*
X48935000Y-96075000D01*
G37*
G36*
X49935000Y-96075000D02*
G01*
X49935000Y-96575000D01*
X49435000Y-96575000D01*
X49435000Y-96075000D01*
X49935000Y-96075000D01*
G37*
G36*
X50435000Y-96075000D02*
G01*
X50435000Y-96575000D01*
X49935000Y-96575000D01*
X49935000Y-96075000D01*
X50435000Y-96075000D01*
G37*
G36*
X51435000Y-96075000D02*
G01*
X51435000Y-96575000D01*
X50935000Y-96575000D01*
X50935000Y-96075000D01*
X51435000Y-96075000D01*
G37*
G36*
X52435000Y-96075000D02*
G01*
X52435000Y-96575000D01*
X51935000Y-96575000D01*
X51935000Y-96075000D01*
X52435000Y-96075000D01*
G37*
G36*
X52935000Y-96075000D02*
G01*
X52935000Y-96575000D01*
X52435000Y-96575000D01*
X52435000Y-96075000D01*
X52935000Y-96075000D01*
G37*
G36*
X55435000Y-96075000D02*
G01*
X55435000Y-96575000D01*
X54935000Y-96575000D01*
X54935000Y-96075000D01*
X55435000Y-96075000D01*
G37*
G36*
X58435000Y-96075000D02*
G01*
X58435000Y-96575000D01*
X57935000Y-96575000D01*
X57935000Y-96075000D01*
X58435000Y-96075000D01*
G37*
G36*
X58935000Y-96075000D02*
G01*
X58935000Y-96575000D01*
X58435000Y-96575000D01*
X58435000Y-96075000D01*
X58935000Y-96075000D01*
G37*
G36*
X43435000Y-95575000D02*
G01*
X43435000Y-96075000D01*
X42935000Y-96075000D01*
X42935000Y-95575000D01*
X43435000Y-95575000D01*
G37*
G36*
X44435000Y-95575000D02*
G01*
X44435000Y-96075000D01*
X43935000Y-96075000D01*
X43935000Y-95575000D01*
X44435000Y-95575000D01*
G37*
G36*
X44935000Y-95575000D02*
G01*
X44935000Y-96075000D01*
X44435000Y-96075000D01*
X44435000Y-95575000D01*
X44935000Y-95575000D01*
G37*
G36*
X45435000Y-95575000D02*
G01*
X45435000Y-96075000D01*
X44935000Y-96075000D01*
X44935000Y-95575000D01*
X45435000Y-95575000D01*
G37*
G36*
X46435000Y-95575000D02*
G01*
X46435000Y-96075000D01*
X45935000Y-96075000D01*
X45935000Y-95575000D01*
X46435000Y-95575000D01*
G37*
G36*
X47435000Y-95575000D02*
G01*
X47435000Y-96075000D01*
X46935000Y-96075000D01*
X46935000Y-95575000D01*
X47435000Y-95575000D01*
G37*
G36*
X47935000Y-95575000D02*
G01*
X47935000Y-96075000D01*
X47435000Y-96075000D01*
X47435000Y-95575000D01*
X47935000Y-95575000D01*
G37*
G36*
X49435000Y-95575000D02*
G01*
X49435000Y-96075000D01*
X48935000Y-96075000D01*
X48935000Y-95575000D01*
X49435000Y-95575000D01*
G37*
G36*
X49935000Y-95575000D02*
G01*
X49935000Y-96075000D01*
X49435000Y-96075000D01*
X49435000Y-95575000D01*
X49935000Y-95575000D01*
G37*
G36*
X50435000Y-95575000D02*
G01*
X50435000Y-96075000D01*
X49935000Y-96075000D01*
X49935000Y-95575000D01*
X50435000Y-95575000D01*
G37*
G36*
X52935000Y-95575000D02*
G01*
X52935000Y-96075000D01*
X52435000Y-96075000D01*
X52435000Y-95575000D01*
X52935000Y-95575000D01*
G37*
G36*
X53435000Y-95575000D02*
G01*
X53435000Y-96075000D01*
X52935000Y-96075000D01*
X52935000Y-95575000D01*
X53435000Y-95575000D01*
G37*
G36*
X55435000Y-95575000D02*
G01*
X55435000Y-96075000D01*
X54935000Y-96075000D01*
X54935000Y-95575000D01*
X55435000Y-95575000D01*
G37*
G36*
X56435000Y-95575000D02*
G01*
X56435000Y-96075000D01*
X55935000Y-96075000D01*
X55935000Y-95575000D01*
X56435000Y-95575000D01*
G37*
G36*
X56935000Y-95575000D02*
G01*
X56935000Y-96075000D01*
X56435000Y-96075000D01*
X56435000Y-95575000D01*
X56935000Y-95575000D01*
G37*
G36*
X57435000Y-95575000D02*
G01*
X57435000Y-96075000D01*
X56935000Y-96075000D01*
X56935000Y-95575000D01*
X57435000Y-95575000D01*
G37*
G36*
X58935000Y-95575000D02*
G01*
X58935000Y-96075000D01*
X58435000Y-96075000D01*
X58435000Y-95575000D01*
X58935000Y-95575000D01*
G37*
G36*
X43935000Y-95075000D02*
G01*
X43935000Y-95575000D01*
X43435000Y-95575000D01*
X43435000Y-95075000D01*
X43935000Y-95075000D01*
G37*
G36*
X44935000Y-95075000D02*
G01*
X44935000Y-95575000D01*
X44435000Y-95575000D01*
X44435000Y-95075000D01*
X44935000Y-95075000D01*
G37*
G36*
X47935000Y-95075000D02*
G01*
X47935000Y-95575000D01*
X47435000Y-95575000D01*
X47435000Y-95075000D01*
X47935000Y-95075000D01*
G37*
G36*
X48435000Y-95075000D02*
G01*
X48435000Y-95575000D01*
X47935000Y-95575000D01*
X47935000Y-95075000D01*
X48435000Y-95075000D01*
G37*
G36*
X48935000Y-95075000D02*
G01*
X48935000Y-95575000D01*
X48435000Y-95575000D01*
X48435000Y-95075000D01*
X48935000Y-95075000D01*
G37*
G36*
X49435000Y-95075000D02*
G01*
X49435000Y-95575000D01*
X48935000Y-95575000D01*
X48935000Y-95075000D01*
X49435000Y-95075000D01*
G37*
G36*
X51435000Y-95075000D02*
G01*
X51435000Y-95575000D01*
X50935000Y-95575000D01*
X50935000Y-95075000D01*
X51435000Y-95075000D01*
G37*
G36*
X51935000Y-95075000D02*
G01*
X51935000Y-95575000D01*
X51435000Y-95575000D01*
X51435000Y-95075000D01*
X51935000Y-95075000D01*
G37*
G36*
X52935000Y-95075000D02*
G01*
X52935000Y-95575000D01*
X52435000Y-95575000D01*
X52435000Y-95075000D01*
X52935000Y-95075000D01*
G37*
G36*
X53435000Y-95075000D02*
G01*
X53435000Y-95575000D01*
X52935000Y-95575000D01*
X52935000Y-95075000D01*
X53435000Y-95075000D01*
G37*
G36*
X53935000Y-95075000D02*
G01*
X53935000Y-95575000D01*
X53435000Y-95575000D01*
X53435000Y-95075000D01*
X53935000Y-95075000D01*
G37*
G36*
X54435000Y-95075000D02*
G01*
X54435000Y-95575000D01*
X53935000Y-95575000D01*
X53935000Y-95075000D01*
X54435000Y-95075000D01*
G37*
G36*
X55435000Y-95075000D02*
G01*
X55435000Y-95575000D01*
X54935000Y-95575000D01*
X54935000Y-95075000D01*
X55435000Y-95075000D01*
G37*
G36*
X56435000Y-95075000D02*
G01*
X56435000Y-95575000D01*
X55935000Y-95575000D01*
X55935000Y-95075000D01*
X56435000Y-95075000D01*
G37*
G36*
X56935000Y-95075000D02*
G01*
X56935000Y-95575000D01*
X56435000Y-95575000D01*
X56435000Y-95075000D01*
X56935000Y-95075000D01*
G37*
G36*
X57435000Y-95075000D02*
G01*
X57435000Y-95575000D01*
X56935000Y-95575000D01*
X56935000Y-95075000D01*
X57435000Y-95075000D01*
G37*
G36*
X58435000Y-95075000D02*
G01*
X58435000Y-95575000D01*
X57935000Y-95575000D01*
X57935000Y-95075000D01*
X58435000Y-95075000D01*
G37*
G36*
X59435000Y-95075000D02*
G01*
X59435000Y-95575000D01*
X58935000Y-95575000D01*
X58935000Y-95075000D01*
X59435000Y-95075000D01*
G37*
G36*
X43435000Y-94575000D02*
G01*
X43435000Y-95075000D01*
X42935000Y-95075000D01*
X42935000Y-94575000D01*
X43435000Y-94575000D01*
G37*
G36*
X43935000Y-94575000D02*
G01*
X43935000Y-95075000D01*
X43435000Y-95075000D01*
X43435000Y-94575000D01*
X43935000Y-94575000D01*
G37*
G36*
X44935000Y-94575000D02*
G01*
X44935000Y-95075000D01*
X44435000Y-95075000D01*
X44435000Y-94575000D01*
X44935000Y-94575000D01*
G37*
G36*
X45935000Y-94575000D02*
G01*
X45935000Y-95075000D01*
X45435000Y-95075000D01*
X45435000Y-94575000D01*
X45935000Y-94575000D01*
G37*
G36*
X46435000Y-94575000D02*
G01*
X46435000Y-95075000D01*
X45935000Y-95075000D01*
X45935000Y-94575000D01*
X46435000Y-94575000D01*
G37*
G36*
X47435000Y-94575000D02*
G01*
X47435000Y-95075000D01*
X46935000Y-95075000D01*
X46935000Y-94575000D01*
X47435000Y-94575000D01*
G37*
G36*
X47935000Y-94575000D02*
G01*
X47935000Y-95075000D01*
X47435000Y-95075000D01*
X47435000Y-94575000D01*
X47935000Y-94575000D01*
G37*
G36*
X48935000Y-94575000D02*
G01*
X48935000Y-95075000D01*
X48435000Y-95075000D01*
X48435000Y-94575000D01*
X48935000Y-94575000D01*
G37*
G36*
X50435000Y-94575000D02*
G01*
X50435000Y-95075000D01*
X49935000Y-95075000D01*
X49935000Y-94575000D01*
X50435000Y-94575000D01*
G37*
G36*
X50935000Y-94575000D02*
G01*
X50935000Y-95075000D01*
X50435000Y-95075000D01*
X50435000Y-94575000D01*
X50935000Y-94575000D01*
G37*
G36*
X51935000Y-94575000D02*
G01*
X51935000Y-95075000D01*
X51435000Y-95075000D01*
X51435000Y-94575000D01*
X51935000Y-94575000D01*
G37*
G36*
X52435000Y-94575000D02*
G01*
X52435000Y-95075000D01*
X51935000Y-95075000D01*
X51935000Y-94575000D01*
X52435000Y-94575000D01*
G37*
G36*
X53935000Y-94575000D02*
G01*
X53935000Y-95075000D01*
X53435000Y-95075000D01*
X53435000Y-94575000D01*
X53935000Y-94575000D01*
G37*
G36*
X54935000Y-94575000D02*
G01*
X54935000Y-95075000D01*
X54435000Y-95075000D01*
X54435000Y-94575000D01*
X54935000Y-94575000D01*
G37*
G36*
X56935000Y-94575000D02*
G01*
X56935000Y-95075000D01*
X56435000Y-95075000D01*
X56435000Y-94575000D01*
X56935000Y-94575000D01*
G37*
G36*
X57435000Y-94575000D02*
G01*
X57435000Y-95075000D01*
X56935000Y-95075000D01*
X56935000Y-94575000D01*
X57435000Y-94575000D01*
G37*
G36*
X57935000Y-94575000D02*
G01*
X57935000Y-95075000D01*
X57435000Y-95075000D01*
X57435000Y-94575000D01*
X57935000Y-94575000D01*
G37*
G36*
X58435000Y-94575000D02*
G01*
X58435000Y-95075000D01*
X57935000Y-95075000D01*
X57935000Y-94575000D01*
X58435000Y-94575000D01*
G37*
G36*
X58935000Y-94575000D02*
G01*
X58935000Y-95075000D01*
X58435000Y-95075000D01*
X58435000Y-94575000D01*
X58935000Y-94575000D01*
G37*
G36*
X59435000Y-94575000D02*
G01*
X59435000Y-95075000D01*
X58935000Y-95075000D01*
X58935000Y-94575000D01*
X59435000Y-94575000D01*
G37*
G36*
X43935000Y-94075000D02*
G01*
X43935000Y-94575000D01*
X43435000Y-94575000D01*
X43435000Y-94075000D01*
X43935000Y-94075000D01*
G37*
G36*
X45435000Y-94075000D02*
G01*
X45435000Y-94575000D01*
X44935000Y-94575000D01*
X44935000Y-94075000D01*
X45435000Y-94075000D01*
G37*
G36*
X45935000Y-94075000D02*
G01*
X45935000Y-94575000D01*
X45435000Y-94575000D01*
X45435000Y-94075000D01*
X45935000Y-94075000D01*
G37*
G36*
X46935000Y-94075000D02*
G01*
X46935000Y-94575000D01*
X46435000Y-94575000D01*
X46435000Y-94075000D01*
X46935000Y-94075000D01*
G37*
G36*
X47935000Y-94075000D02*
G01*
X47935000Y-94575000D01*
X47435000Y-94575000D01*
X47435000Y-94075000D01*
X47935000Y-94075000D01*
G37*
G36*
X48935000Y-94075000D02*
G01*
X48935000Y-94575000D01*
X48435000Y-94575000D01*
X48435000Y-94075000D01*
X48935000Y-94075000D01*
G37*
G36*
X50435000Y-94075000D02*
G01*
X50435000Y-94575000D01*
X49935000Y-94575000D01*
X49935000Y-94075000D01*
X50435000Y-94075000D01*
G37*
G36*
X50935000Y-94075000D02*
G01*
X50935000Y-94575000D01*
X50435000Y-94575000D01*
X50435000Y-94075000D01*
X50935000Y-94075000D01*
G37*
G36*
X51935000Y-94075000D02*
G01*
X51935000Y-94575000D01*
X51435000Y-94575000D01*
X51435000Y-94075000D01*
X51935000Y-94075000D01*
G37*
G36*
X52435000Y-94075000D02*
G01*
X52435000Y-94575000D01*
X51935000Y-94575000D01*
X51935000Y-94075000D01*
X52435000Y-94075000D01*
G37*
G36*
X52935000Y-94075000D02*
G01*
X52935000Y-94575000D01*
X52435000Y-94575000D01*
X52435000Y-94075000D01*
X52935000Y-94075000D01*
G37*
G36*
X53435000Y-94075000D02*
G01*
X53435000Y-94575000D01*
X52935000Y-94575000D01*
X52935000Y-94075000D01*
X53435000Y-94075000D01*
G37*
G36*
X53935000Y-94075000D02*
G01*
X53935000Y-94575000D01*
X53435000Y-94575000D01*
X53435000Y-94075000D01*
X53935000Y-94075000D01*
G37*
G36*
X55935000Y-94075000D02*
G01*
X55935000Y-94575000D01*
X55435000Y-94575000D01*
X55435000Y-94075000D01*
X55935000Y-94075000D01*
G37*
G36*
X57435000Y-94075000D02*
G01*
X57435000Y-94575000D01*
X56935000Y-94575000D01*
X56935000Y-94075000D01*
X57435000Y-94075000D01*
G37*
G36*
X58435000Y-94075000D02*
G01*
X58435000Y-94575000D01*
X57935000Y-94575000D01*
X57935000Y-94075000D01*
X58435000Y-94075000D01*
G37*
G36*
X58935000Y-94075000D02*
G01*
X58935000Y-94575000D01*
X58435000Y-94575000D01*
X58435000Y-94075000D01*
X58935000Y-94075000D01*
G37*
G36*
X43935000Y-93575000D02*
G01*
X43935000Y-94075000D01*
X43435000Y-94075000D01*
X43435000Y-93575000D01*
X43935000Y-93575000D01*
G37*
G36*
X46435000Y-93575000D02*
G01*
X46435000Y-94075000D01*
X45935000Y-94075000D01*
X45935000Y-93575000D01*
X46435000Y-93575000D01*
G37*
G36*
X47435000Y-93575000D02*
G01*
X47435000Y-94075000D01*
X46935000Y-94075000D01*
X46935000Y-93575000D01*
X47435000Y-93575000D01*
G37*
G36*
X47935000Y-93575000D02*
G01*
X47935000Y-94075000D01*
X47435000Y-94075000D01*
X47435000Y-93575000D01*
X47935000Y-93575000D01*
G37*
G36*
X49435000Y-93575000D02*
G01*
X49435000Y-94075000D01*
X48935000Y-94075000D01*
X48935000Y-93575000D01*
X49435000Y-93575000D01*
G37*
G36*
X49935000Y-93575000D02*
G01*
X49935000Y-94075000D01*
X49435000Y-94075000D01*
X49435000Y-93575000D01*
X49935000Y-93575000D01*
G37*
G36*
X50935000Y-93575000D02*
G01*
X50935000Y-94075000D01*
X50435000Y-94075000D01*
X50435000Y-93575000D01*
X50935000Y-93575000D01*
G37*
G36*
X51435000Y-93575000D02*
G01*
X51435000Y-94075000D01*
X50935000Y-94075000D01*
X50935000Y-93575000D01*
X51435000Y-93575000D01*
G37*
G36*
X53935000Y-93575000D02*
G01*
X53935000Y-94075000D01*
X53435000Y-94075000D01*
X53435000Y-93575000D01*
X53935000Y-93575000D01*
G37*
G36*
X54435000Y-93575000D02*
G01*
X54435000Y-94075000D01*
X53935000Y-94075000D01*
X53935000Y-93575000D01*
X54435000Y-93575000D01*
G37*
G36*
X54935000Y-93575000D02*
G01*
X54935000Y-94075000D01*
X54435000Y-94075000D01*
X54435000Y-93575000D01*
X54935000Y-93575000D01*
G37*
G36*
X56435000Y-93575000D02*
G01*
X56435000Y-94075000D01*
X55935000Y-94075000D01*
X55935000Y-93575000D01*
X56435000Y-93575000D01*
G37*
G36*
X57435000Y-93575000D02*
G01*
X57435000Y-94075000D01*
X56935000Y-94075000D01*
X56935000Y-93575000D01*
X57435000Y-93575000D01*
G37*
G36*
X57935000Y-93575000D02*
G01*
X57935000Y-94075000D01*
X57435000Y-94075000D01*
X57435000Y-93575000D01*
X57935000Y-93575000D01*
G37*
G36*
X58935000Y-93575000D02*
G01*
X58935000Y-94075000D01*
X58435000Y-94075000D01*
X58435000Y-93575000D01*
X58935000Y-93575000D01*
G37*
G36*
X59435000Y-93575000D02*
G01*
X59435000Y-94075000D01*
X58935000Y-94075000D01*
X58935000Y-93575000D01*
X59435000Y-93575000D01*
G37*
G36*
X43435000Y-93075000D02*
G01*
X43435000Y-93575000D01*
X42935000Y-93575000D01*
X42935000Y-93075000D01*
X43435000Y-93075000D01*
G37*
G36*
X43935000Y-93075000D02*
G01*
X43935000Y-93575000D01*
X43435000Y-93575000D01*
X43435000Y-93075000D01*
X43935000Y-93075000D01*
G37*
G36*
X44935000Y-93075000D02*
G01*
X44935000Y-93575000D01*
X44435000Y-93575000D01*
X44435000Y-93075000D01*
X44935000Y-93075000D01*
G37*
G36*
X46935000Y-93075000D02*
G01*
X46935000Y-93575000D01*
X46435000Y-93575000D01*
X46435000Y-93075000D01*
X46935000Y-93075000D01*
G37*
G36*
X47435000Y-93075000D02*
G01*
X47435000Y-93575000D01*
X46935000Y-93575000D01*
X46935000Y-93075000D01*
X47435000Y-93075000D01*
G37*
G36*
X47935000Y-93075000D02*
G01*
X47935000Y-93575000D01*
X47435000Y-93575000D01*
X47435000Y-93075000D01*
X47935000Y-93075000D01*
G37*
G36*
X49935000Y-93075000D02*
G01*
X49935000Y-93575000D01*
X49435000Y-93575000D01*
X49435000Y-93075000D01*
X49935000Y-93075000D01*
G37*
G36*
X51435000Y-93075000D02*
G01*
X51435000Y-93575000D01*
X50935000Y-93575000D01*
X50935000Y-93075000D01*
X51435000Y-93075000D01*
G37*
G36*
X52935000Y-93075000D02*
G01*
X52935000Y-93575000D01*
X52435000Y-93575000D01*
X52435000Y-93075000D01*
X52935000Y-93075000D01*
G37*
G36*
X54435000Y-93075000D02*
G01*
X54435000Y-93575000D01*
X53935000Y-93575000D01*
X53935000Y-93075000D01*
X54435000Y-93075000D01*
G37*
G36*
X56935000Y-93075000D02*
G01*
X56935000Y-93575000D01*
X56435000Y-93575000D01*
X56435000Y-93075000D01*
X56935000Y-93075000D01*
G37*
G36*
X57935000Y-93075000D02*
G01*
X57935000Y-93575000D01*
X57435000Y-93575000D01*
X57435000Y-93075000D01*
X57935000Y-93075000D01*
G37*
G36*
X58435000Y-93075000D02*
G01*
X58435000Y-93575000D01*
X57935000Y-93575000D01*
X57935000Y-93075000D01*
X58435000Y-93075000D01*
G37*
G36*
X59435000Y-93075000D02*
G01*
X59435000Y-93575000D01*
X58935000Y-93575000D01*
X58935000Y-93075000D01*
X59435000Y-93075000D01*
G37*
G36*
X45935000Y-92575000D02*
G01*
X45935000Y-93075000D01*
X45435000Y-93075000D01*
X45435000Y-92575000D01*
X45935000Y-92575000D01*
G37*
G36*
X46435000Y-92575000D02*
G01*
X46435000Y-93075000D01*
X45935000Y-93075000D01*
X45935000Y-92575000D01*
X46435000Y-92575000D01*
G37*
G36*
X47435000Y-92575000D02*
G01*
X47435000Y-93075000D01*
X46935000Y-93075000D01*
X46935000Y-92575000D01*
X47435000Y-92575000D01*
G37*
G36*
X47935000Y-92575000D02*
G01*
X47935000Y-93075000D01*
X47435000Y-93075000D01*
X47435000Y-92575000D01*
X47935000Y-92575000D01*
G37*
G36*
X49435000Y-92575000D02*
G01*
X49435000Y-93075000D01*
X48935000Y-93075000D01*
X48935000Y-92575000D01*
X49435000Y-92575000D01*
G37*
G36*
X52935000Y-92575000D02*
G01*
X52935000Y-93075000D01*
X52435000Y-93075000D01*
X52435000Y-92575000D01*
X52935000Y-92575000D01*
G37*
G36*
X53435000Y-92575000D02*
G01*
X53435000Y-93075000D01*
X52935000Y-93075000D01*
X52935000Y-92575000D01*
X53435000Y-92575000D01*
G37*
G36*
X54435000Y-92575000D02*
G01*
X54435000Y-93075000D01*
X53935000Y-93075000D01*
X53935000Y-92575000D01*
X54435000Y-92575000D01*
G37*
G36*
X55435000Y-92575000D02*
G01*
X55435000Y-93075000D01*
X54935000Y-93075000D01*
X54935000Y-92575000D01*
X55435000Y-92575000D01*
G37*
G36*
X57435000Y-92575000D02*
G01*
X57435000Y-93075000D01*
X56935000Y-93075000D01*
X56935000Y-92575000D01*
X57435000Y-92575000D01*
G37*
G36*
X57935000Y-92575000D02*
G01*
X57935000Y-93075000D01*
X57435000Y-93075000D01*
X57435000Y-92575000D01*
X57935000Y-92575000D01*
G37*
G36*
X58435000Y-92575000D02*
G01*
X58435000Y-93075000D01*
X57935000Y-93075000D01*
X57935000Y-92575000D01*
X58435000Y-92575000D01*
G37*
G36*
X58935000Y-92575000D02*
G01*
X58935000Y-93075000D01*
X58435000Y-93075000D01*
X58435000Y-92575000D01*
X58935000Y-92575000D01*
G37*
G36*
X59435000Y-92575000D02*
G01*
X59435000Y-93075000D01*
X58935000Y-93075000D01*
X58935000Y-92575000D01*
X59435000Y-92575000D01*
G37*
G36*
X44435000Y-92075000D02*
G01*
X44435000Y-92575000D01*
X43935000Y-92575000D01*
X43935000Y-92075000D01*
X44435000Y-92075000D01*
G37*
G36*
X46935000Y-92075000D02*
G01*
X46935000Y-92575000D01*
X46435000Y-92575000D01*
X46435000Y-92075000D01*
X46935000Y-92075000D01*
G37*
G36*
X48435000Y-92075000D02*
G01*
X48435000Y-92575000D01*
X47935000Y-92575000D01*
X47935000Y-92075000D01*
X48435000Y-92075000D01*
G37*
G36*
X48935000Y-92075000D02*
G01*
X48935000Y-92575000D01*
X48435000Y-92575000D01*
X48435000Y-92075000D01*
X48935000Y-92075000D01*
G37*
G36*
X49935000Y-92075000D02*
G01*
X49935000Y-92575000D01*
X49435000Y-92575000D01*
X49435000Y-92075000D01*
X49935000Y-92075000D01*
G37*
G36*
X50435000Y-92075000D02*
G01*
X50435000Y-92575000D01*
X49935000Y-92575000D01*
X49935000Y-92075000D01*
X50435000Y-92075000D01*
G37*
G36*
X50935000Y-92075000D02*
G01*
X50935000Y-92575000D01*
X50435000Y-92575000D01*
X50435000Y-92075000D01*
X50935000Y-92075000D01*
G37*
G36*
X51435000Y-92075000D02*
G01*
X51435000Y-92575000D01*
X50935000Y-92575000D01*
X50935000Y-92075000D01*
X51435000Y-92075000D01*
G37*
G36*
X54935000Y-92075000D02*
G01*
X54935000Y-92575000D01*
X54435000Y-92575000D01*
X54435000Y-92075000D01*
X54935000Y-92075000D01*
G37*
G36*
X55935000Y-92075000D02*
G01*
X55935000Y-92575000D01*
X55435000Y-92575000D01*
X55435000Y-92075000D01*
X55935000Y-92075000D01*
G37*
G36*
X56935000Y-92075000D02*
G01*
X56935000Y-92575000D01*
X56435000Y-92575000D01*
X56435000Y-92075000D01*
X56935000Y-92075000D01*
G37*
G36*
X58435000Y-92075000D02*
G01*
X58435000Y-92575000D01*
X57935000Y-92575000D01*
X57935000Y-92075000D01*
X58435000Y-92075000D01*
G37*
G36*
X59435000Y-92075000D02*
G01*
X59435000Y-92575000D01*
X58935000Y-92575000D01*
X58935000Y-92075000D01*
X59435000Y-92075000D01*
G37*
G36*
X44435000Y-91575000D02*
G01*
X44435000Y-92075000D01*
X43935000Y-92075000D01*
X43935000Y-91575000D01*
X44435000Y-91575000D01*
G37*
G36*
X44935000Y-91575000D02*
G01*
X44935000Y-92075000D01*
X44435000Y-92075000D01*
X44435000Y-91575000D01*
X44935000Y-91575000D01*
G37*
G36*
X46435000Y-91575000D02*
G01*
X46435000Y-92075000D01*
X45935000Y-92075000D01*
X45935000Y-91575000D01*
X46435000Y-91575000D01*
G37*
G36*
X48935000Y-91575000D02*
G01*
X48935000Y-92075000D01*
X48435000Y-92075000D01*
X48435000Y-91575000D01*
X48935000Y-91575000D01*
G37*
G36*
X49435000Y-91575000D02*
G01*
X49435000Y-92075000D01*
X48935000Y-92075000D01*
X48935000Y-91575000D01*
X49435000Y-91575000D01*
G37*
G36*
X49935000Y-91575000D02*
G01*
X49935000Y-92075000D01*
X49435000Y-92075000D01*
X49435000Y-91575000D01*
X49935000Y-91575000D01*
G37*
G36*
X50435000Y-91575000D02*
G01*
X50435000Y-92075000D01*
X49935000Y-92075000D01*
X49935000Y-91575000D01*
X50435000Y-91575000D01*
G37*
G36*
X51935000Y-91575000D02*
G01*
X51935000Y-92075000D01*
X51435000Y-92075000D01*
X51435000Y-91575000D01*
X51935000Y-91575000D01*
G37*
G36*
X52935000Y-91575000D02*
G01*
X52935000Y-92075000D01*
X52435000Y-92075000D01*
X52435000Y-91575000D01*
X52935000Y-91575000D01*
G37*
G36*
X53935000Y-91575000D02*
G01*
X53935000Y-92075000D01*
X53435000Y-92075000D01*
X53435000Y-91575000D01*
X53935000Y-91575000D01*
G37*
G36*
X55935000Y-91575000D02*
G01*
X55935000Y-92075000D01*
X55435000Y-92075000D01*
X55435000Y-91575000D01*
X55935000Y-91575000D01*
G37*
G36*
X56435000Y-91575000D02*
G01*
X56435000Y-92075000D01*
X55935000Y-92075000D01*
X55935000Y-91575000D01*
X56435000Y-91575000D01*
G37*
G36*
X56935000Y-91575000D02*
G01*
X56935000Y-92075000D01*
X56435000Y-92075000D01*
X56435000Y-91575000D01*
X56935000Y-91575000D01*
G37*
G36*
X57435000Y-91575000D02*
G01*
X57435000Y-92075000D01*
X56935000Y-92075000D01*
X56935000Y-91575000D01*
X57435000Y-91575000D01*
G37*
G36*
X59435000Y-91575000D02*
G01*
X59435000Y-92075000D01*
X58935000Y-92075000D01*
X58935000Y-91575000D01*
X59435000Y-91575000D01*
G37*
G36*
X43935000Y-91075000D02*
G01*
X43935000Y-91575000D01*
X43435000Y-91575000D01*
X43435000Y-91075000D01*
X43935000Y-91075000D01*
G37*
G36*
X45935000Y-91075000D02*
G01*
X45935000Y-91575000D01*
X45435000Y-91575000D01*
X45435000Y-91075000D01*
X45935000Y-91075000D01*
G37*
G36*
X47435000Y-91075000D02*
G01*
X47435000Y-91575000D01*
X46935000Y-91575000D01*
X46935000Y-91075000D01*
X47435000Y-91075000D01*
G37*
G36*
X47935000Y-91075000D02*
G01*
X47935000Y-91575000D01*
X47435000Y-91575000D01*
X47435000Y-91075000D01*
X47935000Y-91075000D01*
G37*
G36*
X48935000Y-91075000D02*
G01*
X48935000Y-91575000D01*
X48435000Y-91575000D01*
X48435000Y-91075000D01*
X48935000Y-91075000D01*
G37*
G36*
X50435000Y-91075000D02*
G01*
X50435000Y-91575000D01*
X49935000Y-91575000D01*
X49935000Y-91075000D01*
X50435000Y-91075000D01*
G37*
G36*
X52435000Y-91075000D02*
G01*
X52435000Y-91575000D01*
X51935000Y-91575000D01*
X51935000Y-91075000D01*
X52435000Y-91075000D01*
G37*
G36*
X52935000Y-91075000D02*
G01*
X52935000Y-91575000D01*
X52435000Y-91575000D01*
X52435000Y-91075000D01*
X52935000Y-91075000D01*
G37*
G36*
X56435000Y-91075000D02*
G01*
X56435000Y-91575000D01*
X55935000Y-91575000D01*
X55935000Y-91075000D01*
X56435000Y-91075000D01*
G37*
G36*
X57435000Y-91075000D02*
G01*
X57435000Y-91575000D01*
X56935000Y-91575000D01*
X56935000Y-91075000D01*
X57435000Y-91075000D01*
G37*
G36*
X58435000Y-91075000D02*
G01*
X58435000Y-91575000D01*
X57935000Y-91575000D01*
X57935000Y-91075000D01*
X58435000Y-91075000D01*
G37*
G36*
X59435000Y-91075000D02*
G01*
X59435000Y-91575000D01*
X58935000Y-91575000D01*
X58935000Y-91075000D01*
X59435000Y-91075000D01*
G37*
G36*
X43435000Y-90575000D02*
G01*
X43435000Y-91075000D01*
X42935000Y-91075000D01*
X42935000Y-90575000D01*
X43435000Y-90575000D01*
G37*
G36*
X44935000Y-90575000D02*
G01*
X44935000Y-91075000D01*
X44435000Y-91075000D01*
X44435000Y-90575000D01*
X44935000Y-90575000D01*
G37*
G36*
X45935000Y-90575000D02*
G01*
X45935000Y-91075000D01*
X45435000Y-91075000D01*
X45435000Y-90575000D01*
X45935000Y-90575000D01*
G37*
G36*
X46435000Y-90575000D02*
G01*
X46435000Y-91075000D01*
X45935000Y-91075000D01*
X45935000Y-90575000D01*
X46435000Y-90575000D01*
G37*
G36*
X47435000Y-90575000D02*
G01*
X47435000Y-91075000D01*
X46935000Y-91075000D01*
X46935000Y-90575000D01*
X47435000Y-90575000D01*
G37*
G36*
X47935000Y-90575000D02*
G01*
X47935000Y-91075000D01*
X47435000Y-91075000D01*
X47435000Y-90575000D01*
X47935000Y-90575000D01*
G37*
G36*
X48935000Y-90575000D02*
G01*
X48935000Y-91075000D01*
X48435000Y-91075000D01*
X48435000Y-90575000D01*
X48935000Y-90575000D01*
G37*
G36*
X50435000Y-90575000D02*
G01*
X50435000Y-91075000D01*
X49935000Y-91075000D01*
X49935000Y-90575000D01*
X50435000Y-90575000D01*
G37*
G36*
X51435000Y-90575000D02*
G01*
X51435000Y-91075000D01*
X50935000Y-91075000D01*
X50935000Y-90575000D01*
X51435000Y-90575000D01*
G37*
G36*
X52935000Y-90575000D02*
G01*
X52935000Y-91075000D01*
X52435000Y-91075000D01*
X52435000Y-90575000D01*
X52935000Y-90575000D01*
G37*
G36*
X54435000Y-90575000D02*
G01*
X54435000Y-91075000D01*
X53935000Y-91075000D01*
X53935000Y-90575000D01*
X54435000Y-90575000D01*
G37*
G36*
X54935000Y-90575000D02*
G01*
X54935000Y-91075000D01*
X54435000Y-91075000D01*
X54435000Y-90575000D01*
X54935000Y-90575000D01*
G37*
G36*
X57435000Y-90575000D02*
G01*
X57435000Y-91075000D01*
X56935000Y-91075000D01*
X56935000Y-90575000D01*
X57435000Y-90575000D01*
G37*
G36*
X57935000Y-90575000D02*
G01*
X57935000Y-91075000D01*
X57435000Y-91075000D01*
X57435000Y-90575000D01*
X57935000Y-90575000D01*
G37*
G36*
X58435000Y-90575000D02*
G01*
X58435000Y-91075000D01*
X57935000Y-91075000D01*
X57935000Y-90575000D01*
X58435000Y-90575000D01*
G37*
G36*
X59435000Y-90575000D02*
G01*
X59435000Y-91075000D01*
X58935000Y-91075000D01*
X58935000Y-90575000D01*
X59435000Y-90575000D01*
G37*
G36*
X43935000Y-90075000D02*
G01*
X43935000Y-90575000D01*
X43435000Y-90575000D01*
X43435000Y-90075000D01*
X43935000Y-90075000D01*
G37*
G36*
X44935000Y-90075000D02*
G01*
X44935000Y-90575000D01*
X44435000Y-90575000D01*
X44435000Y-90075000D01*
X44935000Y-90075000D01*
G37*
G36*
X45435000Y-90075000D02*
G01*
X45435000Y-90575000D01*
X44935000Y-90575000D01*
X44935000Y-90075000D01*
X45435000Y-90075000D01*
G37*
G36*
X47435000Y-90075000D02*
G01*
X47435000Y-90575000D01*
X46935000Y-90575000D01*
X46935000Y-90075000D01*
X47435000Y-90075000D01*
G37*
G36*
X48435000Y-90075000D02*
G01*
X48435000Y-90575000D01*
X47935000Y-90575000D01*
X47935000Y-90075000D01*
X48435000Y-90075000D01*
G37*
G36*
X49435000Y-90075000D02*
G01*
X49435000Y-90575000D01*
X48935000Y-90575000D01*
X48935000Y-90075000D01*
X49435000Y-90075000D01*
G37*
G36*
X50935000Y-90075000D02*
G01*
X50935000Y-90575000D01*
X50435000Y-90575000D01*
X50435000Y-90075000D01*
X50935000Y-90075000D01*
G37*
G36*
X51435000Y-90075000D02*
G01*
X51435000Y-90575000D01*
X50935000Y-90575000D01*
X50935000Y-90075000D01*
X51435000Y-90075000D01*
G37*
G36*
X51935000Y-90075000D02*
G01*
X51935000Y-90575000D01*
X51435000Y-90575000D01*
X51435000Y-90075000D01*
X51935000Y-90075000D01*
G37*
G36*
X53935000Y-90075000D02*
G01*
X53935000Y-90575000D01*
X53435000Y-90575000D01*
X53435000Y-90075000D01*
X53935000Y-90075000D01*
G37*
G36*
X54435000Y-90075000D02*
G01*
X54435000Y-90575000D01*
X53935000Y-90575000D01*
X53935000Y-90075000D01*
X54435000Y-90075000D01*
G37*
G36*
X54935000Y-90075000D02*
G01*
X54935000Y-90575000D01*
X54435000Y-90575000D01*
X54435000Y-90075000D01*
X54935000Y-90075000D01*
G37*
G36*
X55435000Y-90075000D02*
G01*
X55435000Y-90575000D01*
X54935000Y-90575000D01*
X54935000Y-90075000D01*
X55435000Y-90075000D01*
G37*
G36*
X55935000Y-90075000D02*
G01*
X55935000Y-90575000D01*
X55435000Y-90575000D01*
X55435000Y-90075000D01*
X55935000Y-90075000D01*
G37*
G36*
X58435000Y-90075000D02*
G01*
X58435000Y-90575000D01*
X57935000Y-90575000D01*
X57935000Y-90075000D01*
X58435000Y-90075000D01*
G37*
G36*
X58935000Y-90075000D02*
G01*
X58935000Y-90575000D01*
X58435000Y-90575000D01*
X58435000Y-90075000D01*
X58935000Y-90075000D01*
G37*
G36*
X59435000Y-90075000D02*
G01*
X59435000Y-90575000D01*
X58935000Y-90575000D01*
X58935000Y-90075000D01*
X59435000Y-90075000D01*
G37*
G36*
X43935000Y-89575000D02*
G01*
X43935000Y-90075000D01*
X43435000Y-90075000D01*
X43435000Y-89575000D01*
X43935000Y-89575000D01*
G37*
G36*
X44435000Y-89575000D02*
G01*
X44435000Y-90075000D01*
X43935000Y-90075000D01*
X43935000Y-89575000D01*
X44435000Y-89575000D01*
G37*
G36*
X45435000Y-89575000D02*
G01*
X45435000Y-90075000D01*
X44935000Y-90075000D01*
X44935000Y-89575000D01*
X45435000Y-89575000D01*
G37*
G36*
X46435000Y-89575000D02*
G01*
X46435000Y-90075000D01*
X45935000Y-90075000D01*
X45935000Y-89575000D01*
X46435000Y-89575000D01*
G37*
G36*
X46935000Y-89575000D02*
G01*
X46935000Y-90075000D01*
X46435000Y-90075000D01*
X46435000Y-89575000D01*
X46935000Y-89575000D01*
G37*
G36*
X47435000Y-89575000D02*
G01*
X47435000Y-90075000D01*
X46935000Y-90075000D01*
X46935000Y-89575000D01*
X47435000Y-89575000D01*
G37*
G36*
X47935000Y-89575000D02*
G01*
X47935000Y-90075000D01*
X47435000Y-90075000D01*
X47435000Y-89575000D01*
X47935000Y-89575000D01*
G37*
G36*
X48435000Y-89575000D02*
G01*
X48435000Y-90075000D01*
X47935000Y-90075000D01*
X47935000Y-89575000D01*
X48435000Y-89575000D01*
G37*
G36*
X48935000Y-89575000D02*
G01*
X48935000Y-90075000D01*
X48435000Y-90075000D01*
X48435000Y-89575000D01*
X48935000Y-89575000D01*
G37*
G36*
X49935000Y-89575000D02*
G01*
X49935000Y-90075000D01*
X49435000Y-90075000D01*
X49435000Y-89575000D01*
X49935000Y-89575000D01*
G37*
G36*
X50435000Y-89575000D02*
G01*
X50435000Y-90075000D01*
X49935000Y-90075000D01*
X49935000Y-89575000D01*
X50435000Y-89575000D01*
G37*
G36*
X50935000Y-89575000D02*
G01*
X50935000Y-90075000D01*
X50435000Y-90075000D01*
X50435000Y-89575000D01*
X50935000Y-89575000D01*
G37*
G36*
X52435000Y-89575000D02*
G01*
X52435000Y-90075000D01*
X51935000Y-90075000D01*
X51935000Y-89575000D01*
X52435000Y-89575000D01*
G37*
G36*
X53435000Y-89575000D02*
G01*
X53435000Y-90075000D01*
X52935000Y-90075000D01*
X52935000Y-89575000D01*
X53435000Y-89575000D01*
G37*
G36*
X53935000Y-89575000D02*
G01*
X53935000Y-90075000D01*
X53435000Y-90075000D01*
X53435000Y-89575000D01*
X53935000Y-89575000D01*
G37*
G36*
X54935000Y-89575000D02*
G01*
X54935000Y-90075000D01*
X54435000Y-90075000D01*
X54435000Y-89575000D01*
X54935000Y-89575000D01*
G37*
G36*
X55435000Y-89575000D02*
G01*
X55435000Y-90075000D01*
X54935000Y-90075000D01*
X54935000Y-89575000D01*
X55435000Y-89575000D01*
G37*
G36*
X55935000Y-89575000D02*
G01*
X55935000Y-90075000D01*
X55435000Y-90075000D01*
X55435000Y-89575000D01*
X55935000Y-89575000D01*
G37*
G36*
X56935000Y-89575000D02*
G01*
X56935000Y-90075000D01*
X56435000Y-90075000D01*
X56435000Y-89575000D01*
X56935000Y-89575000D01*
G37*
G36*
X57435000Y-89575000D02*
G01*
X57435000Y-90075000D01*
X56935000Y-90075000D01*
X56935000Y-89575000D01*
X57435000Y-89575000D01*
G37*
G36*
X59435000Y-89575000D02*
G01*
X59435000Y-90075000D01*
X58935000Y-90075000D01*
X58935000Y-89575000D01*
X59435000Y-89575000D01*
G37*
G36*
X43435000Y-89075000D02*
G01*
X43435000Y-89575000D01*
X42935000Y-89575000D01*
X42935000Y-89075000D01*
X43435000Y-89075000D01*
G37*
G36*
X43935000Y-89075000D02*
G01*
X43935000Y-89575000D01*
X43435000Y-89575000D01*
X43435000Y-89075000D01*
X43935000Y-89075000D01*
G37*
G36*
X44435000Y-89075000D02*
G01*
X44435000Y-89575000D01*
X43935000Y-89575000D01*
X43935000Y-89075000D01*
X44435000Y-89075000D01*
G37*
G36*
X44935000Y-89075000D02*
G01*
X44935000Y-89575000D01*
X44435000Y-89575000D01*
X44435000Y-89075000D01*
X44935000Y-89075000D01*
G37*
G36*
X47435000Y-89075000D02*
G01*
X47435000Y-89575000D01*
X46935000Y-89575000D01*
X46935000Y-89075000D01*
X47435000Y-89075000D01*
G37*
G36*
X47935000Y-89075000D02*
G01*
X47935000Y-89575000D01*
X47435000Y-89575000D01*
X47435000Y-89075000D01*
X47935000Y-89075000D01*
G37*
G36*
X48435000Y-89075000D02*
G01*
X48435000Y-89575000D01*
X47935000Y-89575000D01*
X47935000Y-89075000D01*
X48435000Y-89075000D01*
G37*
G36*
X49935000Y-89075000D02*
G01*
X49935000Y-89575000D01*
X49435000Y-89575000D01*
X49435000Y-89075000D01*
X49935000Y-89075000D01*
G37*
G36*
X50935000Y-89075000D02*
G01*
X50935000Y-89575000D01*
X50435000Y-89575000D01*
X50435000Y-89075000D01*
X50935000Y-89075000D01*
G37*
G36*
X51935000Y-89075000D02*
G01*
X51935000Y-89575000D01*
X51435000Y-89575000D01*
X51435000Y-89075000D01*
X51935000Y-89075000D01*
G37*
G36*
X53435000Y-89075000D02*
G01*
X53435000Y-89575000D01*
X52935000Y-89575000D01*
X52935000Y-89075000D01*
X53435000Y-89075000D01*
G37*
G36*
X54435000Y-89075000D02*
G01*
X54435000Y-89575000D01*
X53935000Y-89575000D01*
X53935000Y-89075000D01*
X54435000Y-89075000D01*
G37*
G36*
X56435000Y-89075000D02*
G01*
X56435000Y-89575000D01*
X55935000Y-89575000D01*
X55935000Y-89075000D01*
X56435000Y-89075000D01*
G37*
G36*
X56935000Y-89075000D02*
G01*
X56935000Y-89575000D01*
X56435000Y-89575000D01*
X56435000Y-89075000D01*
X56935000Y-89075000D01*
G37*
G36*
X57435000Y-89075000D02*
G01*
X57435000Y-89575000D01*
X56935000Y-89575000D01*
X56935000Y-89075000D01*
X57435000Y-89075000D01*
G37*
G36*
X57935000Y-89075000D02*
G01*
X57935000Y-89575000D01*
X57435000Y-89575000D01*
X57435000Y-89075000D01*
X57935000Y-89075000D01*
G37*
G36*
X59435000Y-89075000D02*
G01*
X59435000Y-89575000D01*
X58935000Y-89575000D01*
X58935000Y-89075000D01*
X59435000Y-89075000D01*
G37*
G36*
X43435000Y-88575000D02*
G01*
X43435000Y-89075000D01*
X42935000Y-89075000D01*
X42935000Y-88575000D01*
X43435000Y-88575000D01*
G37*
G36*
X43935000Y-88575000D02*
G01*
X43935000Y-89075000D01*
X43435000Y-89075000D01*
X43435000Y-88575000D01*
X43935000Y-88575000D01*
G37*
G36*
X44435000Y-88575000D02*
G01*
X44435000Y-89075000D01*
X43935000Y-89075000D01*
X43935000Y-88575000D01*
X44435000Y-88575000D01*
G37*
G36*
X46435000Y-88575000D02*
G01*
X46435000Y-89075000D01*
X45935000Y-89075000D01*
X45935000Y-88575000D01*
X46435000Y-88575000D01*
G37*
G36*
X47935000Y-88575000D02*
G01*
X47935000Y-89075000D01*
X47435000Y-89075000D01*
X47435000Y-88575000D01*
X47935000Y-88575000D01*
G37*
G36*
X48935000Y-88575000D02*
G01*
X48935000Y-89075000D01*
X48435000Y-89075000D01*
X48435000Y-88575000D01*
X48935000Y-88575000D01*
G37*
G36*
X49435000Y-88575000D02*
G01*
X49435000Y-89075000D01*
X48935000Y-89075000D01*
X48935000Y-88575000D01*
X49435000Y-88575000D01*
G37*
G36*
X50435000Y-88575000D02*
G01*
X50435000Y-89075000D01*
X49935000Y-89075000D01*
X49935000Y-88575000D01*
X50435000Y-88575000D01*
G37*
G36*
X50935000Y-88575000D02*
G01*
X50935000Y-89075000D01*
X50435000Y-89075000D01*
X50435000Y-88575000D01*
X50935000Y-88575000D01*
G37*
G36*
X51435000Y-88575000D02*
G01*
X51435000Y-89075000D01*
X50935000Y-89075000D01*
X50935000Y-88575000D01*
X51435000Y-88575000D01*
G37*
G36*
X54935000Y-88575000D02*
G01*
X54935000Y-89075000D01*
X54435000Y-89075000D01*
X54435000Y-88575000D01*
X54935000Y-88575000D01*
G37*
G36*
X55435000Y-88575000D02*
G01*
X55435000Y-89075000D01*
X54935000Y-89075000D01*
X54935000Y-88575000D01*
X55435000Y-88575000D01*
G37*
G36*
X56935000Y-88575000D02*
G01*
X56935000Y-89075000D01*
X56435000Y-89075000D01*
X56435000Y-88575000D01*
X56935000Y-88575000D01*
G37*
G36*
X58435000Y-88575000D02*
G01*
X58435000Y-89075000D01*
X57935000Y-89075000D01*
X57935000Y-88575000D01*
X58435000Y-88575000D01*
G37*
G36*
X44935000Y-88075000D02*
G01*
X44935000Y-88575000D01*
X44435000Y-88575000D01*
X44435000Y-88075000D01*
X44935000Y-88075000D01*
G37*
G36*
X45935000Y-88075000D02*
G01*
X45935000Y-88575000D01*
X45435000Y-88575000D01*
X45435000Y-88075000D01*
X45935000Y-88075000D01*
G37*
G36*
X47435000Y-88075000D02*
G01*
X47435000Y-88575000D01*
X46935000Y-88575000D01*
X46935000Y-88075000D01*
X47435000Y-88075000D01*
G37*
G36*
X47935000Y-88075000D02*
G01*
X47935000Y-88575000D01*
X47435000Y-88575000D01*
X47435000Y-88075000D01*
X47935000Y-88075000D01*
G37*
G36*
X49435000Y-88075000D02*
G01*
X49435000Y-88575000D01*
X48935000Y-88575000D01*
X48935000Y-88075000D01*
X49435000Y-88075000D01*
G37*
G36*
X52435000Y-88075000D02*
G01*
X52435000Y-88575000D01*
X51935000Y-88575000D01*
X51935000Y-88075000D01*
X52435000Y-88075000D01*
G37*
G36*
X52935000Y-88075000D02*
G01*
X52935000Y-88575000D01*
X52435000Y-88575000D01*
X52435000Y-88075000D01*
X52935000Y-88075000D01*
G37*
G36*
X54935000Y-88075000D02*
G01*
X54935000Y-88575000D01*
X54435000Y-88575000D01*
X54435000Y-88075000D01*
X54935000Y-88075000D01*
G37*
G36*
X58435000Y-88075000D02*
G01*
X58435000Y-88575000D01*
X57935000Y-88575000D01*
X57935000Y-88075000D01*
X58435000Y-88075000D01*
G37*
G36*
X59435000Y-88075000D02*
G01*
X59435000Y-88575000D01*
X58935000Y-88575000D01*
X58935000Y-88075000D01*
X59435000Y-88075000D01*
G37*
G36*
X43435000Y-87575000D02*
G01*
X43435000Y-88075000D01*
X42935000Y-88075000D01*
X42935000Y-87575000D01*
X43435000Y-87575000D01*
G37*
G36*
X43935000Y-87575000D02*
G01*
X43935000Y-88075000D01*
X43435000Y-88075000D01*
X43435000Y-87575000D01*
X43935000Y-87575000D01*
G37*
G36*
X44435000Y-87575000D02*
G01*
X44435000Y-88075000D01*
X43935000Y-88075000D01*
X43935000Y-87575000D01*
X44435000Y-87575000D01*
G37*
G36*
X44935000Y-87575000D02*
G01*
X44935000Y-88075000D01*
X44435000Y-88075000D01*
X44435000Y-87575000D01*
X44935000Y-87575000D01*
G37*
G36*
X45435000Y-87575000D02*
G01*
X45435000Y-88075000D01*
X44935000Y-88075000D01*
X44935000Y-87575000D01*
X45435000Y-87575000D01*
G37*
G36*
X45935000Y-87575000D02*
G01*
X45935000Y-88075000D01*
X45435000Y-88075000D01*
X45435000Y-87575000D01*
X45935000Y-87575000D01*
G37*
G36*
X46435000Y-87575000D02*
G01*
X46435000Y-88075000D01*
X45935000Y-88075000D01*
X45935000Y-87575000D01*
X46435000Y-87575000D01*
G37*
G36*
X46935000Y-87575000D02*
G01*
X46935000Y-88075000D01*
X46435000Y-88075000D01*
X46435000Y-87575000D01*
X46935000Y-87575000D01*
G37*
G36*
X47935000Y-87575000D02*
G01*
X47935000Y-88075000D01*
X47435000Y-88075000D01*
X47435000Y-87575000D01*
X47935000Y-87575000D01*
G37*
G36*
X49435000Y-87575000D02*
G01*
X49435000Y-88075000D01*
X48935000Y-88075000D01*
X48935000Y-87575000D01*
X49435000Y-87575000D01*
G37*
G36*
X52435000Y-87575000D02*
G01*
X52435000Y-88075000D01*
X51935000Y-88075000D01*
X51935000Y-87575000D01*
X52435000Y-87575000D01*
G37*
G36*
X52935000Y-87575000D02*
G01*
X52935000Y-88075000D01*
X52435000Y-88075000D01*
X52435000Y-87575000D01*
X52935000Y-87575000D01*
G37*
G36*
X53435000Y-87575000D02*
G01*
X53435000Y-88075000D01*
X52935000Y-88075000D01*
X52935000Y-87575000D01*
X53435000Y-87575000D01*
G37*
G36*
X55935000Y-87575000D02*
G01*
X55935000Y-88075000D01*
X55435000Y-88075000D01*
X55435000Y-87575000D01*
X55935000Y-87575000D01*
G37*
G36*
X56435000Y-87575000D02*
G01*
X56435000Y-88075000D01*
X55935000Y-88075000D01*
X55935000Y-87575000D01*
X56435000Y-87575000D01*
G37*
G36*
X56935000Y-87575000D02*
G01*
X56935000Y-88075000D01*
X56435000Y-88075000D01*
X56435000Y-87575000D01*
X56935000Y-87575000D01*
G37*
G36*
X57935000Y-87575000D02*
G01*
X57935000Y-88075000D01*
X57435000Y-88075000D01*
X57435000Y-87575000D01*
X57935000Y-87575000D01*
G37*
G36*
X58935000Y-87575000D02*
G01*
X58935000Y-88075000D01*
X58435000Y-88075000D01*
X58435000Y-87575000D01*
X58935000Y-87575000D01*
G37*
G36*
X59435000Y-87575000D02*
G01*
X59435000Y-88075000D01*
X58935000Y-88075000D01*
X58935000Y-87575000D01*
X59435000Y-87575000D01*
G37*
G36*
X46935000Y-87075000D02*
G01*
X46935000Y-87575000D01*
X46435000Y-87575000D01*
X46435000Y-87075000D01*
X46935000Y-87075000D01*
G37*
G36*
X48935000Y-87075000D02*
G01*
X48935000Y-87575000D01*
X48435000Y-87575000D01*
X48435000Y-87075000D01*
X48935000Y-87075000D01*
G37*
G36*
X49435000Y-87075000D02*
G01*
X49435000Y-87575000D01*
X48935000Y-87575000D01*
X48935000Y-87075000D01*
X49435000Y-87075000D01*
G37*
G36*
X49935000Y-87075000D02*
G01*
X49935000Y-87575000D01*
X49435000Y-87575000D01*
X49435000Y-87075000D01*
X49935000Y-87075000D01*
G37*
G36*
X51435000Y-87075000D02*
G01*
X51435000Y-87575000D01*
X50935000Y-87575000D01*
X50935000Y-87075000D01*
X51435000Y-87075000D01*
G37*
G36*
X51935000Y-87075000D02*
G01*
X51935000Y-87575000D01*
X51435000Y-87575000D01*
X51435000Y-87075000D01*
X51935000Y-87075000D01*
G37*
G36*
X52935000Y-87075000D02*
G01*
X52935000Y-87575000D01*
X52435000Y-87575000D01*
X52435000Y-87075000D01*
X52935000Y-87075000D01*
G37*
G36*
X53435000Y-87075000D02*
G01*
X53435000Y-87575000D01*
X52935000Y-87575000D01*
X52935000Y-87075000D01*
X53435000Y-87075000D01*
G37*
G36*
X53935000Y-87075000D02*
G01*
X53935000Y-87575000D01*
X53435000Y-87575000D01*
X53435000Y-87075000D01*
X53935000Y-87075000D01*
G37*
G36*
X54435000Y-87075000D02*
G01*
X54435000Y-87575000D01*
X53935000Y-87575000D01*
X53935000Y-87075000D01*
X54435000Y-87075000D01*
G37*
G36*
X54935000Y-87075000D02*
G01*
X54935000Y-87575000D01*
X54435000Y-87575000D01*
X54435000Y-87075000D01*
X54935000Y-87075000D01*
G37*
G36*
X55935000Y-87075000D02*
G01*
X55935000Y-87575000D01*
X55435000Y-87575000D01*
X55435000Y-87075000D01*
X55935000Y-87075000D01*
G37*
G36*
X56935000Y-87075000D02*
G01*
X56935000Y-87575000D01*
X56435000Y-87575000D01*
X56435000Y-87075000D01*
X56935000Y-87075000D01*
G37*
G36*
X58435000Y-87075000D02*
G01*
X58435000Y-87575000D01*
X57935000Y-87575000D01*
X57935000Y-87075000D01*
X58435000Y-87075000D01*
G37*
G36*
X58935000Y-87075000D02*
G01*
X58935000Y-87575000D01*
X58435000Y-87575000D01*
X58435000Y-87075000D01*
X58935000Y-87075000D01*
G37*
G36*
X59435000Y-87075000D02*
G01*
X59435000Y-87575000D01*
X58935000Y-87575000D01*
X58935000Y-87075000D01*
X59435000Y-87075000D01*
G37*
G36*
X43935000Y-86575000D02*
G01*
X43935000Y-87075000D01*
X43435000Y-87075000D01*
X43435000Y-86575000D01*
X43935000Y-86575000D01*
G37*
G36*
X44435000Y-86575000D02*
G01*
X44435000Y-87075000D01*
X43935000Y-87075000D01*
X43935000Y-86575000D01*
X44435000Y-86575000D01*
G37*
G36*
X44935000Y-86575000D02*
G01*
X44935000Y-87075000D01*
X44435000Y-87075000D01*
X44435000Y-86575000D01*
X44935000Y-86575000D01*
G37*
G36*
X45435000Y-86575000D02*
G01*
X45435000Y-87075000D01*
X44935000Y-87075000D01*
X44935000Y-86575000D01*
X45435000Y-86575000D01*
G37*
G36*
X45935000Y-86575000D02*
G01*
X45935000Y-87075000D01*
X45435000Y-87075000D01*
X45435000Y-86575000D01*
X45935000Y-86575000D01*
G37*
G36*
X46935000Y-86575000D02*
G01*
X46935000Y-87075000D01*
X46435000Y-87075000D01*
X46435000Y-86575000D01*
X46935000Y-86575000D01*
G37*
G36*
X47435000Y-86575000D02*
G01*
X47435000Y-87075000D01*
X46935000Y-87075000D01*
X46935000Y-86575000D01*
X47435000Y-86575000D01*
G37*
G36*
X47935000Y-86575000D02*
G01*
X47935000Y-87075000D01*
X47435000Y-87075000D01*
X47435000Y-86575000D01*
X47935000Y-86575000D01*
G37*
G36*
X48435000Y-86575000D02*
G01*
X48435000Y-87075000D01*
X47935000Y-87075000D01*
X47935000Y-86575000D01*
X48435000Y-86575000D01*
G37*
G36*
X49435000Y-86575000D02*
G01*
X49435000Y-87075000D01*
X48935000Y-87075000D01*
X48935000Y-86575000D01*
X49435000Y-86575000D01*
G37*
G36*
X49935000Y-86575000D02*
G01*
X49935000Y-87075000D01*
X49435000Y-87075000D01*
X49435000Y-86575000D01*
X49935000Y-86575000D01*
G37*
G36*
X51935000Y-86575000D02*
G01*
X51935000Y-87075000D01*
X51435000Y-87075000D01*
X51435000Y-86575000D01*
X51935000Y-86575000D01*
G37*
G36*
X52435000Y-86575000D02*
G01*
X52435000Y-87075000D01*
X51935000Y-87075000D01*
X51935000Y-86575000D01*
X52435000Y-86575000D01*
G37*
G36*
X53435000Y-86575000D02*
G01*
X53435000Y-87075000D01*
X52935000Y-87075000D01*
X52935000Y-86575000D01*
X53435000Y-86575000D01*
G37*
G36*
X53935000Y-86575000D02*
G01*
X53935000Y-87075000D01*
X53435000Y-87075000D01*
X53435000Y-86575000D01*
X53935000Y-86575000D01*
G37*
G36*
X54935000Y-86575000D02*
G01*
X54935000Y-87075000D01*
X54435000Y-87075000D01*
X54435000Y-86575000D01*
X54935000Y-86575000D01*
G37*
G36*
X55935000Y-86575000D02*
G01*
X55935000Y-87075000D01*
X55435000Y-87075000D01*
X55435000Y-86575000D01*
X55935000Y-86575000D01*
G37*
G36*
X56435000Y-86575000D02*
G01*
X56435000Y-87075000D01*
X55935000Y-87075000D01*
X55935000Y-86575000D01*
X56435000Y-86575000D01*
G37*
G36*
X56935000Y-86575000D02*
G01*
X56935000Y-87075000D01*
X56435000Y-87075000D01*
X56435000Y-86575000D01*
X56935000Y-86575000D01*
G37*
G36*
X57935000Y-86575000D02*
G01*
X57935000Y-87075000D01*
X57435000Y-87075000D01*
X57435000Y-86575000D01*
X57935000Y-86575000D01*
G37*
G36*
X58435000Y-86575000D02*
G01*
X58435000Y-87075000D01*
X57935000Y-87075000D01*
X57935000Y-86575000D01*
X58435000Y-86575000D01*
G37*
G36*
X58935000Y-86575000D02*
G01*
X58935000Y-87075000D01*
X58435000Y-87075000D01*
X58435000Y-86575000D01*
X58935000Y-86575000D01*
G37*
G36*
X43935000Y-86075000D02*
G01*
X43935000Y-86575000D01*
X43435000Y-86575000D01*
X43435000Y-86075000D01*
X43935000Y-86075000D01*
G37*
G36*
X45935000Y-86075000D02*
G01*
X45935000Y-86575000D01*
X45435000Y-86575000D01*
X45435000Y-86075000D01*
X45935000Y-86075000D01*
G37*
G36*
X46935000Y-86075000D02*
G01*
X46935000Y-86575000D01*
X46435000Y-86575000D01*
X46435000Y-86075000D01*
X46935000Y-86075000D01*
G37*
G36*
X47935000Y-86075000D02*
G01*
X47935000Y-86575000D01*
X47435000Y-86575000D01*
X47435000Y-86075000D01*
X47935000Y-86075000D01*
G37*
G36*
X48435000Y-86075000D02*
G01*
X48435000Y-86575000D01*
X47935000Y-86575000D01*
X47935000Y-86075000D01*
X48435000Y-86075000D01*
G37*
G36*
X50935000Y-86075000D02*
G01*
X50935000Y-86575000D01*
X50435000Y-86575000D01*
X50435000Y-86075000D01*
X50935000Y-86075000D01*
G37*
G36*
X51935000Y-86075000D02*
G01*
X51935000Y-86575000D01*
X51435000Y-86575000D01*
X51435000Y-86075000D01*
X51935000Y-86075000D01*
G37*
G36*
X52435000Y-86075000D02*
G01*
X52435000Y-86575000D01*
X51935000Y-86575000D01*
X51935000Y-86075000D01*
X52435000Y-86075000D01*
G37*
G36*
X53435000Y-86075000D02*
G01*
X53435000Y-86575000D01*
X52935000Y-86575000D01*
X52935000Y-86075000D01*
X53435000Y-86075000D01*
G37*
G36*
X53935000Y-86075000D02*
G01*
X53935000Y-86575000D01*
X53435000Y-86575000D01*
X53435000Y-86075000D01*
X53935000Y-86075000D01*
G37*
G36*
X54935000Y-86075000D02*
G01*
X54935000Y-86575000D01*
X54435000Y-86575000D01*
X54435000Y-86075000D01*
X54935000Y-86075000D01*
G37*
G36*
X58435000Y-86075000D02*
G01*
X58435000Y-86575000D01*
X57935000Y-86575000D01*
X57935000Y-86075000D01*
X58435000Y-86075000D01*
G37*
G36*
X58935000Y-86075000D02*
G01*
X58935000Y-86575000D01*
X58435000Y-86575000D01*
X58435000Y-86075000D01*
X58935000Y-86075000D01*
G37*
G36*
X43935000Y-85575000D02*
G01*
X43935000Y-86075000D01*
X43435000Y-86075000D01*
X43435000Y-85575000D01*
X43935000Y-85575000D01*
G37*
G36*
X45935000Y-85575000D02*
G01*
X45935000Y-86075000D01*
X45435000Y-86075000D01*
X45435000Y-85575000D01*
X45935000Y-85575000D01*
G37*
G36*
X46935000Y-85575000D02*
G01*
X46935000Y-86075000D01*
X46435000Y-86075000D01*
X46435000Y-85575000D01*
X46935000Y-85575000D01*
G37*
G36*
X47435000Y-85575000D02*
G01*
X47435000Y-86075000D01*
X46935000Y-86075000D01*
X46935000Y-85575000D01*
X47435000Y-85575000D01*
G37*
G36*
X48935000Y-85575000D02*
G01*
X48935000Y-86075000D01*
X48435000Y-86075000D01*
X48435000Y-85575000D01*
X48935000Y-85575000D01*
G37*
G36*
X50435000Y-85575000D02*
G01*
X50435000Y-86075000D01*
X49935000Y-86075000D01*
X49935000Y-85575000D01*
X50435000Y-85575000D01*
G37*
G36*
X50935000Y-85575000D02*
G01*
X50935000Y-86075000D01*
X50435000Y-86075000D01*
X50435000Y-85575000D01*
X50935000Y-85575000D01*
G37*
G36*
X51435000Y-85575000D02*
G01*
X51435000Y-86075000D01*
X50935000Y-86075000D01*
X50935000Y-85575000D01*
X51435000Y-85575000D01*
G37*
G36*
X51935000Y-85575000D02*
G01*
X51935000Y-86075000D01*
X51435000Y-86075000D01*
X51435000Y-85575000D01*
X51935000Y-85575000D01*
G37*
G36*
X53935000Y-85575000D02*
G01*
X53935000Y-86075000D01*
X53435000Y-86075000D01*
X53435000Y-85575000D01*
X53935000Y-85575000D01*
G37*
G36*
X54435000Y-85575000D02*
G01*
X54435000Y-86075000D01*
X53935000Y-86075000D01*
X53935000Y-85575000D01*
X54435000Y-85575000D01*
G37*
G36*
X55435000Y-85575000D02*
G01*
X55435000Y-86075000D01*
X54935000Y-86075000D01*
X54935000Y-85575000D01*
X55435000Y-85575000D01*
G37*
G36*
X55935000Y-85575000D02*
G01*
X55935000Y-86075000D01*
X55435000Y-86075000D01*
X55435000Y-85575000D01*
X55935000Y-85575000D01*
G37*
G36*
X59435000Y-85575000D02*
G01*
X59435000Y-86075000D01*
X58935000Y-86075000D01*
X58935000Y-85575000D01*
X59435000Y-85575000D01*
G37*
G36*
X43935000Y-85075000D02*
G01*
X43935000Y-85575000D01*
X43435000Y-85575000D01*
X43435000Y-85075000D01*
X43935000Y-85075000D01*
G37*
G36*
X45935000Y-85075000D02*
G01*
X45935000Y-85575000D01*
X45435000Y-85575000D01*
X45435000Y-85075000D01*
X45935000Y-85075000D01*
G37*
G36*
X46935000Y-85075000D02*
G01*
X46935000Y-85575000D01*
X46435000Y-85575000D01*
X46435000Y-85075000D01*
X46935000Y-85075000D01*
G37*
G36*
X47435000Y-85075000D02*
G01*
X47435000Y-85575000D01*
X46935000Y-85575000D01*
X46935000Y-85075000D01*
X47435000Y-85075000D01*
G37*
G36*
X48435000Y-85075000D02*
G01*
X48435000Y-85575000D01*
X47935000Y-85575000D01*
X47935000Y-85075000D01*
X48435000Y-85075000D01*
G37*
G36*
X48935000Y-85075000D02*
G01*
X48935000Y-85575000D01*
X48435000Y-85575000D01*
X48435000Y-85075000D01*
X48935000Y-85075000D01*
G37*
G36*
X49935000Y-85075000D02*
G01*
X49935000Y-85575000D01*
X49435000Y-85575000D01*
X49435000Y-85075000D01*
X49935000Y-85075000D01*
G37*
G36*
X51435000Y-85075000D02*
G01*
X51435000Y-85575000D01*
X50935000Y-85575000D01*
X50935000Y-85075000D01*
X51435000Y-85075000D01*
G37*
G36*
X51935000Y-85075000D02*
G01*
X51935000Y-85575000D01*
X51435000Y-85575000D01*
X51435000Y-85075000D01*
X51935000Y-85075000D01*
G37*
G36*
X52935000Y-85075000D02*
G01*
X52935000Y-85575000D01*
X52435000Y-85575000D01*
X52435000Y-85075000D01*
X52935000Y-85075000D01*
G37*
G36*
X54435000Y-85075000D02*
G01*
X54435000Y-85575000D01*
X53935000Y-85575000D01*
X53935000Y-85075000D01*
X54435000Y-85075000D01*
G37*
G36*
X54935000Y-85075000D02*
G01*
X54935000Y-85575000D01*
X54435000Y-85575000D01*
X54435000Y-85075000D01*
X54935000Y-85075000D01*
G37*
G36*
X55435000Y-85075000D02*
G01*
X55435000Y-85575000D01*
X54935000Y-85575000D01*
X54935000Y-85075000D01*
X55435000Y-85075000D01*
G37*
G36*
X58435000Y-85075000D02*
G01*
X58435000Y-85575000D01*
X57935000Y-85575000D01*
X57935000Y-85075000D01*
X58435000Y-85075000D01*
G37*
G36*
X58935000Y-85075000D02*
G01*
X58935000Y-85575000D01*
X58435000Y-85575000D01*
X58435000Y-85075000D01*
X58935000Y-85075000D01*
G37*
G36*
X59435000Y-85075000D02*
G01*
X59435000Y-85575000D01*
X58935000Y-85575000D01*
X58935000Y-85075000D01*
X59435000Y-85075000D01*
G37*
G36*
X43935000Y-84575000D02*
G01*
X43935000Y-85075000D01*
X43435000Y-85075000D01*
X43435000Y-84575000D01*
X43935000Y-84575000D01*
G37*
G36*
X44435000Y-84575000D02*
G01*
X44435000Y-85075000D01*
X43935000Y-85075000D01*
X43935000Y-84575000D01*
X44435000Y-84575000D01*
G37*
G36*
X44935000Y-84575000D02*
G01*
X44935000Y-85075000D01*
X44435000Y-85075000D01*
X44435000Y-84575000D01*
X44935000Y-84575000D01*
G37*
G36*
X45435000Y-84575000D02*
G01*
X45435000Y-85075000D01*
X44935000Y-85075000D01*
X44935000Y-84575000D01*
X45435000Y-84575000D01*
G37*
G36*
X45935000Y-84575000D02*
G01*
X45935000Y-85075000D01*
X45435000Y-85075000D01*
X45435000Y-84575000D01*
X45935000Y-84575000D01*
G37*
G36*
X46935000Y-84575000D02*
G01*
X46935000Y-85075000D01*
X46435000Y-85075000D01*
X46435000Y-84575000D01*
X46935000Y-84575000D01*
G37*
G36*
X47435000Y-84575000D02*
G01*
X47435000Y-85075000D01*
X46935000Y-85075000D01*
X46935000Y-84575000D01*
X47435000Y-84575000D01*
G37*
G36*
X47935000Y-84575000D02*
G01*
X47935000Y-85075000D01*
X47435000Y-85075000D01*
X47435000Y-84575000D01*
X47935000Y-84575000D01*
G37*
G36*
X48435000Y-84575000D02*
G01*
X48435000Y-85075000D01*
X47935000Y-85075000D01*
X47935000Y-84575000D01*
X48435000Y-84575000D01*
G37*
G36*
X50435000Y-84575000D02*
G01*
X50435000Y-85075000D01*
X49935000Y-85075000D01*
X49935000Y-84575000D01*
X50435000Y-84575000D01*
G37*
G36*
X52935000Y-84575000D02*
G01*
X52935000Y-85075000D01*
X52435000Y-85075000D01*
X52435000Y-84575000D01*
X52935000Y-84575000D01*
G37*
G36*
X53435000Y-84575000D02*
G01*
X53435000Y-85075000D01*
X52935000Y-85075000D01*
X52935000Y-84575000D01*
X53435000Y-84575000D01*
G37*
G36*
X54435000Y-84575000D02*
G01*
X54435000Y-85075000D01*
X53935000Y-85075000D01*
X53935000Y-84575000D01*
X54435000Y-84575000D01*
G37*
G36*
X55935000Y-84575000D02*
G01*
X55935000Y-85075000D01*
X55435000Y-85075000D01*
X55435000Y-84575000D01*
X55935000Y-84575000D01*
G37*
G36*
X56935000Y-84575000D02*
G01*
X56935000Y-85075000D01*
X56435000Y-85075000D01*
X56435000Y-84575000D01*
X56935000Y-84575000D01*
G37*
G36*
X57435000Y-84575000D02*
G01*
X57435000Y-85075000D01*
X56935000Y-85075000D01*
X56935000Y-84575000D01*
X57435000Y-84575000D01*
G37*
G36*
X57935000Y-84575000D02*
G01*
X57935000Y-85075000D01*
X57435000Y-85075000D01*
X57435000Y-84575000D01*
X57935000Y-84575000D01*
G37*
G36*
X58435000Y-84575000D02*
G01*
X58435000Y-85075000D01*
X57935000Y-85075000D01*
X57935000Y-84575000D01*
X58435000Y-84575000D01*
G37*
G36*
X58935000Y-84575000D02*
G01*
X58935000Y-85075000D01*
X58435000Y-85075000D01*
X58435000Y-84575000D01*
X58935000Y-84575000D01*
G37*
G36*
X59435000Y-84575000D02*
G01*
X59435000Y-85075000D01*
X58935000Y-85075000D01*
X58935000Y-84575000D01*
X59435000Y-84575000D01*
G37*
G36*
X46935000Y-84075000D02*
G01*
X46935000Y-84575000D01*
X46435000Y-84575000D01*
X46435000Y-84075000D01*
X46935000Y-84075000D01*
G37*
G36*
X47935000Y-84075000D02*
G01*
X47935000Y-84575000D01*
X47435000Y-84575000D01*
X47435000Y-84075000D01*
X47935000Y-84075000D01*
G37*
G36*
X48935000Y-84075000D02*
G01*
X48935000Y-84575000D01*
X48435000Y-84575000D01*
X48435000Y-84075000D01*
X48935000Y-84075000D01*
G37*
G36*
X49435000Y-84075000D02*
G01*
X49435000Y-84575000D01*
X48935000Y-84575000D01*
X48935000Y-84075000D01*
X49435000Y-84075000D01*
G37*
G36*
X49935000Y-84075000D02*
G01*
X49935000Y-84575000D01*
X49435000Y-84575000D01*
X49435000Y-84075000D01*
X49935000Y-84075000D01*
G37*
G36*
X50435000Y-84075000D02*
G01*
X50435000Y-84575000D01*
X49935000Y-84575000D01*
X49935000Y-84075000D01*
X50435000Y-84075000D01*
G37*
G36*
X50935000Y-84075000D02*
G01*
X50935000Y-84575000D01*
X50435000Y-84575000D01*
X50435000Y-84075000D01*
X50935000Y-84075000D01*
G37*
G36*
X51435000Y-84075000D02*
G01*
X51435000Y-84575000D01*
X50935000Y-84575000D01*
X50935000Y-84075000D01*
X51435000Y-84075000D01*
G37*
G36*
X52435000Y-84075000D02*
G01*
X52435000Y-84575000D01*
X51935000Y-84575000D01*
X51935000Y-84075000D01*
X52435000Y-84075000D01*
G37*
G36*
X56935000Y-84075000D02*
G01*
X56935000Y-84575000D01*
X56435000Y-84575000D01*
X56435000Y-84075000D01*
X56935000Y-84075000D01*
G37*
G36*
X57435000Y-84075000D02*
G01*
X57435000Y-84575000D01*
X56935000Y-84575000D01*
X56935000Y-84075000D01*
X57435000Y-84075000D01*
G37*
G36*
X58435000Y-84075000D02*
G01*
X58435000Y-84575000D01*
X57935000Y-84575000D01*
X57935000Y-84075000D01*
X58435000Y-84075000D01*
G37*
G36*
X58935000Y-84075000D02*
G01*
X58935000Y-84575000D01*
X58435000Y-84575000D01*
X58435000Y-84075000D01*
X58935000Y-84075000D01*
G37*
%TD*%
M02*
