%TF.GenerationSoftware,KiCad,Pcbnew,5.1.12-84ad8e8a86~92~ubuntu20.04.1*%
%TF.CreationDate,2021-11-19T19:38:05+01:00*%
%TF.ProjectId,autotrigger_dslr,6175746f-7472-4696-9767-65725f64736c,rev?*%
%TF.SameCoordinates,Original*%
%TF.FileFunction,Soldermask,Top*%
%TF.FilePolarity,Negative*%
%FSLAX46Y46*%
G04 Gerber Fmt 4.6, Leading zero omitted, Abs format (unit mm)*
G04 Created by KiCad (PCBNEW 5.1.12-84ad8e8a86~92~ubuntu20.04.1) date 2021-11-19 19:38:05*
%MOMM*%
%LPD*%
G01*
G04 APERTURE LIST*
%ADD10C,5.400000*%
%ADD11R,1.700000X1.700000*%
%ADD12O,1.700000X1.700000*%
%ADD13R,1.800000X0.800000*%
%ADD14R,1.900000X0.800000*%
%ADD15R,1.600000X2.180000*%
%ADD16C,2.000000*%
%ADD17R,1.000000X2.500000*%
%ADD18R,1.800000X1.000000*%
%ADD19R,2.000000X3.800000*%
%ADD20R,2.000000X1.500000*%
%ADD21R,0.900000X1.200000*%
%ADD22R,1.200000X0.900000*%
G04 APERTURE END LIST*
%TO.C,C1*%
G36*
G01*
X64295000Y-90387500D02*
X65245000Y-90387500D01*
G75*
G02*
X65495000Y-90637500I0J-250000D01*
G01*
X65495000Y-91312500D01*
G75*
G02*
X65245000Y-91562500I-250000J0D01*
G01*
X64295000Y-91562500D01*
G75*
G02*
X64045000Y-91312500I0J250000D01*
G01*
X64045000Y-90637500D01*
G75*
G02*
X64295000Y-90387500I250000J0D01*
G01*
G37*
G36*
G01*
X64295000Y-88312500D02*
X65245000Y-88312500D01*
G75*
G02*
X65495000Y-88562500I0J-250000D01*
G01*
X65495000Y-89237500D01*
G75*
G02*
X65245000Y-89487500I-250000J0D01*
G01*
X64295000Y-89487500D01*
G75*
G02*
X64045000Y-89237500I0J250000D01*
G01*
X64045000Y-88562500D01*
G75*
G02*
X64295000Y-88312500I250000J0D01*
G01*
G37*
%TD*%
%TO.C,C2*%
G36*
G01*
X65245000Y-86947500D02*
X64295000Y-86947500D01*
G75*
G02*
X64045000Y-86697500I0J250000D01*
G01*
X64045000Y-86022500D01*
G75*
G02*
X64295000Y-85772500I250000J0D01*
G01*
X65245000Y-85772500D01*
G75*
G02*
X65495000Y-86022500I0J-250000D01*
G01*
X65495000Y-86697500D01*
G75*
G02*
X65245000Y-86947500I-250000J0D01*
G01*
G37*
G36*
G01*
X65245000Y-84872500D02*
X64295000Y-84872500D01*
G75*
G02*
X64045000Y-84622500I0J250000D01*
G01*
X64045000Y-83947500D01*
G75*
G02*
X64295000Y-83697500I250000J0D01*
G01*
X65245000Y-83697500D01*
G75*
G02*
X65495000Y-83947500I0J-250000D01*
G01*
X65495000Y-84622500D01*
G75*
G02*
X65245000Y-84872500I-250000J0D01*
G01*
G37*
%TD*%
%TO.C,C3*%
G36*
G01*
X41435000Y-101012500D02*
X42385000Y-101012500D01*
G75*
G02*
X42635000Y-101262500I0J-250000D01*
G01*
X42635000Y-101937500D01*
G75*
G02*
X42385000Y-102187500I-250000J0D01*
G01*
X41435000Y-102187500D01*
G75*
G02*
X41185000Y-101937500I0J250000D01*
G01*
X41185000Y-101262500D01*
G75*
G02*
X41435000Y-101012500I250000J0D01*
G01*
G37*
G36*
G01*
X41435000Y-103087500D02*
X42385000Y-103087500D01*
G75*
G02*
X42635000Y-103337500I0J-250000D01*
G01*
X42635000Y-104012500D01*
G75*
G02*
X42385000Y-104262500I-250000J0D01*
G01*
X41435000Y-104262500D01*
G75*
G02*
X41185000Y-104012500I0J250000D01*
G01*
X41185000Y-103337500D01*
G75*
G02*
X41435000Y-103087500I250000J0D01*
G01*
G37*
%TD*%
%TO.C,C4*%
G36*
G01*
X119855000Y-85445000D02*
X118905000Y-85445000D01*
G75*
G02*
X118655000Y-85195000I0J250000D01*
G01*
X118655000Y-84520000D01*
G75*
G02*
X118905000Y-84270000I250000J0D01*
G01*
X119855000Y-84270000D01*
G75*
G02*
X120105000Y-84520000I0J-250000D01*
G01*
X120105000Y-85195000D01*
G75*
G02*
X119855000Y-85445000I-250000J0D01*
G01*
G37*
G36*
G01*
X119855000Y-83370000D02*
X118905000Y-83370000D01*
G75*
G02*
X118655000Y-83120000I0J250000D01*
G01*
X118655000Y-82445000D01*
G75*
G02*
X118905000Y-82195000I250000J0D01*
G01*
X119855000Y-82195000D01*
G75*
G02*
X120105000Y-82445000I0J-250000D01*
G01*
X120105000Y-83120000D01*
G75*
G02*
X119855000Y-83370000I-250000J0D01*
G01*
G37*
%TD*%
%TO.C,C5*%
G36*
G01*
X56355000Y-102187500D02*
X55405000Y-102187500D01*
G75*
G02*
X55155000Y-101937500I0J250000D01*
G01*
X55155000Y-101262500D01*
G75*
G02*
X55405000Y-101012500I250000J0D01*
G01*
X56355000Y-101012500D01*
G75*
G02*
X56605000Y-101262500I0J-250000D01*
G01*
X56605000Y-101937500D01*
G75*
G02*
X56355000Y-102187500I-250000J0D01*
G01*
G37*
G36*
G01*
X56355000Y-104262500D02*
X55405000Y-104262500D01*
G75*
G02*
X55155000Y-104012500I0J250000D01*
G01*
X55155000Y-103337500D01*
G75*
G02*
X55405000Y-103087500I250000J0D01*
G01*
X56355000Y-103087500D01*
G75*
G02*
X56605000Y-103337500I0J-250000D01*
G01*
X56605000Y-104012500D01*
G75*
G02*
X56355000Y-104262500I-250000J0D01*
G01*
G37*
%TD*%
D10*
%TO.C,H1*%
X30480000Y-74930000D03*
%TD*%
%TO.C,H2*%
X30480000Y-104140000D03*
%TD*%
%TO.C,H3*%
X133350000Y-104140000D03*
%TD*%
%TO.C,H4*%
X133350000Y-74930000D03*
%TD*%
D11*
%TO.C,J1*%
X49530000Y-73660000D03*
D12*
X46990000Y-73660000D03*
X44450000Y-73660000D03*
X41910000Y-73660000D03*
X39370000Y-73660000D03*
%TD*%
D11*
%TO.C,J2*%
X58420000Y-77470000D03*
D12*
X60960000Y-77470000D03*
X63500000Y-77470000D03*
X66040000Y-77470000D03*
%TD*%
D11*
%TO.C,J3*%
X125730000Y-96520000D03*
D12*
X125730000Y-99060000D03*
%TD*%
%TO.C,J4*%
X69850000Y-102870000D03*
D11*
X67310000Y-102870000D03*
%TD*%
D13*
%TO.C,K1*%
X129230000Y-85100000D03*
X129230000Y-88300000D03*
X129230000Y-90500000D03*
X129230000Y-92700000D03*
X122230000Y-92700000D03*
X122230000Y-90500000D03*
X122230000Y-88300000D03*
X122230000Y-85100000D03*
%TD*%
D14*
%TO.C,Q1*%
X116840000Y-78740000D03*
X116840000Y-80640000D03*
X119840000Y-79690000D03*
%TD*%
%TO.C,R1*%
G36*
G01*
X109820000Y-74479999D02*
X109820000Y-75380001D01*
G75*
G02*
X109570001Y-75630000I-249999J0D01*
G01*
X108869999Y-75630000D01*
G75*
G02*
X108620000Y-75380001I0J249999D01*
G01*
X108620000Y-74479999D01*
G75*
G02*
X108869999Y-74230000I249999J0D01*
G01*
X109570001Y-74230000D01*
G75*
G02*
X109820000Y-74479999I0J-249999D01*
G01*
G37*
G36*
G01*
X107820000Y-74479999D02*
X107820000Y-75380001D01*
G75*
G02*
X107570001Y-75630000I-249999J0D01*
G01*
X106869999Y-75630000D01*
G75*
G02*
X106620000Y-75380001I0J249999D01*
G01*
X106620000Y-74479999D01*
G75*
G02*
X106869999Y-74230000I249999J0D01*
G01*
X107570001Y-74230000D01*
G75*
G02*
X107820000Y-74479999I0J-249999D01*
G01*
G37*
%TD*%
%TO.C,R2*%
G36*
G01*
X94110000Y-75380001D02*
X94110000Y-74479999D01*
G75*
G02*
X94359999Y-74230000I249999J0D01*
G01*
X95060001Y-74230000D01*
G75*
G02*
X95310000Y-74479999I0J-249999D01*
G01*
X95310000Y-75380001D01*
G75*
G02*
X95060001Y-75630000I-249999J0D01*
G01*
X94359999Y-75630000D01*
G75*
G02*
X94110000Y-75380001I0J249999D01*
G01*
G37*
G36*
G01*
X92110000Y-75380001D02*
X92110000Y-74479999D01*
G75*
G02*
X92359999Y-74230000I249999J0D01*
G01*
X93060001Y-74230000D01*
G75*
G02*
X93310000Y-74479999I0J-249999D01*
G01*
X93310000Y-75380001D01*
G75*
G02*
X93060001Y-75630000I-249999J0D01*
G01*
X92359999Y-75630000D01*
G75*
G02*
X92110000Y-75380001I0J249999D01*
G01*
G37*
%TD*%
%TO.C,R3*%
G36*
G01*
X116170000Y-75749999D02*
X116170000Y-76650001D01*
G75*
G02*
X115920001Y-76900000I-249999J0D01*
G01*
X115219999Y-76900000D01*
G75*
G02*
X114970000Y-76650001I0J249999D01*
G01*
X114970000Y-75749999D01*
G75*
G02*
X115219999Y-75500000I249999J0D01*
G01*
X115920001Y-75500000D01*
G75*
G02*
X116170000Y-75749999I0J-249999D01*
G01*
G37*
G36*
G01*
X114170000Y-75749999D02*
X114170000Y-76650001D01*
G75*
G02*
X113920001Y-76900000I-249999J0D01*
G01*
X113219999Y-76900000D01*
G75*
G02*
X112970000Y-76650001I0J249999D01*
G01*
X112970000Y-75749999D01*
G75*
G02*
X113219999Y-75500000I249999J0D01*
G01*
X113920001Y-75500000D01*
G75*
G02*
X114170000Y-75749999I0J-249999D01*
G01*
G37*
%TD*%
%TO.C,R4*%
G36*
G01*
X112579999Y-80140000D02*
X113480001Y-80140000D01*
G75*
G02*
X113730000Y-80389999I0J-249999D01*
G01*
X113730000Y-81090001D01*
G75*
G02*
X113480001Y-81340000I-249999J0D01*
G01*
X112579999Y-81340000D01*
G75*
G02*
X112330000Y-81090001I0J249999D01*
G01*
X112330000Y-80389999D01*
G75*
G02*
X112579999Y-80140000I249999J0D01*
G01*
G37*
G36*
G01*
X112579999Y-78140000D02*
X113480001Y-78140000D01*
G75*
G02*
X113730000Y-78389999I0J-249999D01*
G01*
X113730000Y-79090001D01*
G75*
G02*
X113480001Y-79340000I-249999J0D01*
G01*
X112579999Y-79340000D01*
G75*
G02*
X112330000Y-79090001I0J249999D01*
G01*
X112330000Y-78389999D01*
G75*
G02*
X112579999Y-78140000I249999J0D01*
G01*
G37*
%TD*%
%TO.C,R5*%
G36*
G01*
X91255001Y-78610000D02*
X90354999Y-78610000D01*
G75*
G02*
X90105000Y-78360001I0J249999D01*
G01*
X90105000Y-77659999D01*
G75*
G02*
X90354999Y-77410000I249999J0D01*
G01*
X91255001Y-77410000D01*
G75*
G02*
X91505000Y-77659999I0J-249999D01*
G01*
X91505000Y-78360001D01*
G75*
G02*
X91255001Y-78610000I-249999J0D01*
G01*
G37*
G36*
G01*
X91255001Y-80610000D02*
X90354999Y-80610000D01*
G75*
G02*
X90105000Y-80360001I0J249999D01*
G01*
X90105000Y-79659999D01*
G75*
G02*
X90354999Y-79410000I249999J0D01*
G01*
X91255001Y-79410000D01*
G75*
G02*
X91505000Y-79659999I0J-249999D01*
G01*
X91505000Y-80360001D01*
G75*
G02*
X91255001Y-80610000I-249999J0D01*
G01*
G37*
%TD*%
%TO.C,R6*%
G36*
G01*
X86810001Y-92770000D02*
X85909999Y-92770000D01*
G75*
G02*
X85660000Y-92520001I0J249999D01*
G01*
X85660000Y-91819999D01*
G75*
G02*
X85909999Y-91570000I249999J0D01*
G01*
X86810001Y-91570000D01*
G75*
G02*
X87060000Y-91819999I0J-249999D01*
G01*
X87060000Y-92520001D01*
G75*
G02*
X86810001Y-92770000I-249999J0D01*
G01*
G37*
G36*
G01*
X86810001Y-90770000D02*
X85909999Y-90770000D01*
G75*
G02*
X85660000Y-90520001I0J249999D01*
G01*
X85660000Y-89819999D01*
G75*
G02*
X85909999Y-89570000I249999J0D01*
G01*
X86810001Y-89570000D01*
G75*
G02*
X87060000Y-89819999I0J-249999D01*
G01*
X87060000Y-90520001D01*
G75*
G02*
X86810001Y-90770000I-249999J0D01*
G01*
G37*
%TD*%
%TO.C,R7*%
G36*
G01*
X88449999Y-91570000D02*
X89350001Y-91570000D01*
G75*
G02*
X89600000Y-91819999I0J-249999D01*
G01*
X89600000Y-92520001D01*
G75*
G02*
X89350001Y-92770000I-249999J0D01*
G01*
X88449999Y-92770000D01*
G75*
G02*
X88200000Y-92520001I0J249999D01*
G01*
X88200000Y-91819999D01*
G75*
G02*
X88449999Y-91570000I249999J0D01*
G01*
G37*
G36*
G01*
X88449999Y-89570000D02*
X89350001Y-89570000D01*
G75*
G02*
X89600000Y-89819999I0J-249999D01*
G01*
X89600000Y-90520001D01*
G75*
G02*
X89350001Y-90770000I-249999J0D01*
G01*
X88449999Y-90770000D01*
G75*
G02*
X88200000Y-90520001I0J249999D01*
G01*
X88200000Y-89819999D01*
G75*
G02*
X88449999Y-89570000I249999J0D01*
G01*
G37*
%TD*%
%TO.C,R8*%
G36*
G01*
X107280000Y-88449999D02*
X107280000Y-89350001D01*
G75*
G02*
X107030001Y-89600000I-249999J0D01*
G01*
X106329999Y-89600000D01*
G75*
G02*
X106080000Y-89350001I0J249999D01*
G01*
X106080000Y-88449999D01*
G75*
G02*
X106329999Y-88200000I249999J0D01*
G01*
X107030001Y-88200000D01*
G75*
G02*
X107280000Y-88449999I0J-249999D01*
G01*
G37*
G36*
G01*
X105280000Y-88449999D02*
X105280000Y-89350001D01*
G75*
G02*
X105030001Y-89600000I-249999J0D01*
G01*
X104329999Y-89600000D01*
G75*
G02*
X104080000Y-89350001I0J249999D01*
G01*
X104080000Y-88449999D01*
G75*
G02*
X104329999Y-88200000I249999J0D01*
G01*
X105030001Y-88200000D01*
G75*
G02*
X105280000Y-88449999I0J-249999D01*
G01*
G37*
%TD*%
%TO.C,R9*%
G36*
G01*
X77870000Y-105860001D02*
X77870000Y-104959999D01*
G75*
G02*
X78119999Y-104710000I249999J0D01*
G01*
X78820001Y-104710000D01*
G75*
G02*
X79070000Y-104959999I0J-249999D01*
G01*
X79070000Y-105860001D01*
G75*
G02*
X78820001Y-106110000I-249999J0D01*
G01*
X78119999Y-106110000D01*
G75*
G02*
X77870000Y-105860001I0J249999D01*
G01*
G37*
G36*
G01*
X75870000Y-105860001D02*
X75870000Y-104959999D01*
G75*
G02*
X76119999Y-104710000I249999J0D01*
G01*
X76820001Y-104710000D01*
G75*
G02*
X77070000Y-104959999I0J-249999D01*
G01*
X77070000Y-105860001D01*
G75*
G02*
X76820001Y-106110000I-249999J0D01*
G01*
X76119999Y-106110000D01*
G75*
G02*
X75870000Y-105860001I0J249999D01*
G01*
G37*
%TD*%
%TO.C,R10*%
G36*
G01*
X51619999Y-78410000D02*
X52520001Y-78410000D01*
G75*
G02*
X52770000Y-78659999I0J-249999D01*
G01*
X52770000Y-79360001D01*
G75*
G02*
X52520001Y-79610000I-249999J0D01*
G01*
X51619999Y-79610000D01*
G75*
G02*
X51370000Y-79360001I0J249999D01*
G01*
X51370000Y-78659999D01*
G75*
G02*
X51619999Y-78410000I249999J0D01*
G01*
G37*
G36*
G01*
X51619999Y-80410000D02*
X52520001Y-80410000D01*
G75*
G02*
X52770000Y-80659999I0J-249999D01*
G01*
X52770000Y-81360001D01*
G75*
G02*
X52520001Y-81610000I-249999J0D01*
G01*
X51619999Y-81610000D01*
G75*
G02*
X51370000Y-81360001I0J249999D01*
G01*
X51370000Y-80659999D01*
G75*
G02*
X51619999Y-80410000I249999J0D01*
G01*
G37*
%TD*%
%TO.C,R11*%
G36*
G01*
X57480000Y-80829999D02*
X57480000Y-81730001D01*
G75*
G02*
X57230001Y-81980000I-249999J0D01*
G01*
X56529999Y-81980000D01*
G75*
G02*
X56280000Y-81730001I0J249999D01*
G01*
X56280000Y-80829999D01*
G75*
G02*
X56529999Y-80580000I249999J0D01*
G01*
X57230001Y-80580000D01*
G75*
G02*
X57480000Y-80829999I0J-249999D01*
G01*
G37*
G36*
G01*
X55480000Y-80829999D02*
X55480000Y-81730001D01*
G75*
G02*
X55230001Y-81980000I-249999J0D01*
G01*
X54529999Y-81980000D01*
G75*
G02*
X54280000Y-81730001I0J249999D01*
G01*
X54280000Y-80829999D01*
G75*
G02*
X54529999Y-80580000I249999J0D01*
G01*
X55230001Y-80580000D01*
G75*
G02*
X55480000Y-80829999I0J-249999D01*
G01*
G37*
%TD*%
D15*
%TO.C,SW1*%
X104140000Y-75420000D03*
X104140000Y-84600000D03*
%TD*%
%TO.C,SW2*%
X97790000Y-84600000D03*
X97790000Y-75420000D03*
%TD*%
D16*
%TO.C,SW3*%
X87780000Y-81280000D03*
X87780000Y-85780000D03*
X81280000Y-81280000D03*
X81280000Y-85780000D03*
%TD*%
%TO.C,SW4*%
X81280000Y-101020000D03*
X81280000Y-96520000D03*
X87780000Y-101020000D03*
X87780000Y-96520000D03*
%TD*%
%TO.C,SW5*%
X101750000Y-88900000D03*
X101750000Y-93400000D03*
X95250000Y-88900000D03*
X95250000Y-93400000D03*
%TD*%
%TO.C,SW6*%
X109220000Y-93400000D03*
X109220000Y-88900000D03*
X115720000Y-93400000D03*
X115720000Y-88900000D03*
%TD*%
D17*
%TO.C,U1*%
X42220000Y-99040000D03*
X44220000Y-99040000D03*
X46220000Y-99040000D03*
X48220000Y-99040000D03*
X50220000Y-99040000D03*
X52220000Y-99040000D03*
X54220000Y-99040000D03*
X56220000Y-99040000D03*
D18*
X57720000Y-96440000D03*
X57720000Y-94440000D03*
X57720000Y-92440000D03*
X57720000Y-90440000D03*
X57720000Y-88440000D03*
X57720000Y-86440000D03*
D17*
X56220000Y-83840000D03*
X54220000Y-83840000D03*
X52220000Y-83840000D03*
X50220000Y-83840000D03*
X48220000Y-83840000D03*
X46220000Y-83840000D03*
X44220000Y-83840000D03*
X42220000Y-83840000D03*
%TD*%
D19*
%TO.C,U2*%
X74270000Y-86360000D03*
D20*
X67970000Y-86360000D03*
X67970000Y-88660000D03*
X67970000Y-84060000D03*
%TD*%
D21*
%TO.C,D1*%
X124460000Y-80010000D03*
X127760000Y-80010000D03*
%TD*%
D22*
%TO.C,D2*%
X66040000Y-95250000D03*
X66040000Y-98550000D03*
%TD*%
%TO.C,F1*%
G36*
G01*
X67930000Y-99240000D02*
X67930000Y-96340000D01*
G75*
G02*
X68180000Y-96090000I250000J0D01*
G01*
X68980000Y-96090000D01*
G75*
G02*
X69230000Y-96340000I0J-250000D01*
G01*
X69230000Y-99240000D01*
G75*
G02*
X68980000Y-99490000I-250000J0D01*
G01*
X68180000Y-99490000D01*
G75*
G02*
X67930000Y-99240000I0J250000D01*
G01*
G37*
G36*
G01*
X72380000Y-99240000D02*
X72380000Y-96340000D01*
G75*
G02*
X72630000Y-96090000I250000J0D01*
G01*
X73430000Y-96090000D01*
G75*
G02*
X73680000Y-96340000I0J-250000D01*
G01*
X73680000Y-99240000D01*
G75*
G02*
X73430000Y-99490000I-250000J0D01*
G01*
X72630000Y-99490000D01*
G75*
G02*
X72380000Y-99240000I0J250000D01*
G01*
G37*
%TD*%
M02*
